<svg version="1.1" id="Layer_1" xmlns="http://www.w3.org/2000/svg" xmlns:xlink="http://www.w3.org/1999/xlink" x="0px" y="0px"
	 width="100%" viewBox="0 0 1024 672" enable-background="new 0 0 1024 672" xml:space="preserve">
<path fill="#000000" opacity="1.000000" stroke="none" 
	d="
M153.788605,334.190369 
	C166.654099,362.902649 188.245758,379.300201 219.276886,382.743408 
	C249.714874,386.120789 279.825958,368.256134 293.446289,344.063660 
	C298.148804,335.710999 301.553314,326.916199 302.700562,317.350189 
	C303.168823,313.445709 305.050903,312.375092 308.879578,313.254395 
	C322.044647,316.277985 323.310333,317.573486 319.902405,330.800903 
	C311.358490,363.963409 290.326782,386.699738 258.466034,397.908356 
	C224.924316,409.708344 192.843521,404.416321 164.576172,382.488678 
	C137.839569,361.748413 125.151001,333.485168 127.035446,299.948608 
	C129.738022,251.852127 164.455154,216.198059 209.111420,209.189468 
	C243.661377,203.767044 274.445465,213.403290 299.746765,238.215408 
	C302.814575,241.223907 305.099762,241.724030 308.730957,239.631836 
	C311.447479,238.066620 314.458221,235.143753 317.850311,237.618759 
	C321.141022,240.019791 319.528168,243.849762 319.143341,246.988953 
	C318.071625,255.731812 316.674286,264.436707 315.298370,273.139648 
	C314.366638,279.032837 312.016602,280.290588 306.683289,277.741272 
	C299.170776,274.150299 291.741180,270.386047 284.238495,266.774078 
	C274.211700,261.946869 273.907593,259.332001 282.755127,253.110825 
	C268.946411,235.171326 229.934723,218.701874 192.870270,236.120071 
	C156.051559,253.422791 138.123978,294.767151 153.788605,334.190369 
z"/>
<path fill="#000000" opacity="1.000000" stroke="none" 
	d="
M171.240173,281.153442 
	C186.695114,273.637390 201.685059,266.024902 217.059113,259.194153 
	C223.594879,256.290314 229.633209,256.086700 236.204483,259.226562 
	C252.121857,266.832214 268.234589,274.028503 284.248474,281.433197 
	C286.918518,282.667786 290.126038,283.570251 290.219727,287.348755 
	C290.312775,291.104034 287.187042,292.344116 284.584320,293.631653 
	C267.729309,301.969757 250.791290,310.139954 233.923080,318.451630 
	C228.005508,321.367554 222.412872,320.914246 216.812836,317.645142 
	C209.667267,313.473785 202.451965,309.421875 194.140442,304.675323 
	C205.869354,297.848938 217.743088,293.730713 229.159515,287.862305 
	C227.085342,284.145142 224.245880,283.375519 220.785110,284.926331 
	C209.700882,289.893524 198.653687,294.944061 187.619614,300.021973 
	C184.584274,301.418915 183.043121,303.541992 183.974991,307.219574 
	C184.786911,310.423767 184.918335,313.668243 183.577576,316.997040 
	C182.584747,319.462006 183.342239,322.230591 184.067078,324.843903 
	C184.593704,326.742554 185.187881,328.641754 184.839722,330.726807 
	C184.257935,334.211121 182.776215,336.931671 178.913605,336.909729 
	C175.077316,336.887970 173.324905,334.159729 173.028595,330.688965 
	C172.848434,328.578613 173.428177,326.412567 173.547272,324.264954 
	C173.675644,321.949646 174.455597,319.256439 173.573883,317.372894 
	C170.251221,310.274811 172.775635,304.135773 175.897614,297.982086 
	C175.008377,295.776825 172.797852,295.552826 171.148315,294.556152 
	C168.368362,292.876434 164.701202,291.933807 164.736267,287.734222 
	C164.769363,283.773987 168.163635,282.806274 171.240173,281.153442 
z"/>
<path fill="#000000" opacity="1.000000" stroke="none" 
	d="
M558.951233,238.480286 
	C568.087585,236.316345 575.436707,238.833649 581.544739,245.716949 
	C587.598694,240.131744 594.198547,237.163193 602.214966,237.686325 
	C611.849609,238.315033 619.003235,244.388489 620.204285,253.975845 
	C621.804138,266.746185 620.736633,279.603577 620.942200,292.421265 
	C620.989502,295.371460 619.536438,296.480164 616.592590,296.426544 
	C602.124023,296.162842 604.943481,297.974152 604.682434,285.101196 
	C604.557495,278.938141 604.609558,272.769836 604.684814,266.605164 
	C604.715759,264.070312 604.250183,261.650696 603.667114,259.213196 
	C602.649841,254.960587 600.023438,252.546616 595.676575,252.207886 
	C591.256104,251.863373 587.875000,253.699234 585.802795,257.627441 
	C584.537903,260.025238 584.237488,262.674835 584.250549,265.388092 
	C584.291565,273.886322 584.106262,282.388702 584.318420,290.881775 
	C584.417725,294.856140 583.299622,296.589783 579.005859,296.466858 
	C566.110474,296.097717 567.932251,297.947479 567.772217,285.308563 
	C567.679382,277.977661 567.856262,270.641815 567.675171,263.314026 
	C567.502502,256.329224 564.108521,252.399139 558.616577,252.335175 
	C552.824768,252.267700 548.443665,256.829315 548.314880,263.565460 
	C548.136475,272.893829 548.135620,282.230042 548.304871,291.558441 
	C548.372498,295.285126 546.947083,296.519409 543.315735,296.442139 
	C529.564453,296.149414 531.817932,297.972290 531.699890,285.287903 
	C531.572815,271.624847 531.784302,257.958221 531.607666,244.296280 
	C531.555420,240.259644 532.776978,238.336884 537.003967,238.785934 
	C538.817078,238.978516 540.672852,238.926788 542.498291,238.811554 
	C545.769958,238.605011 548.516052,239.097580 548.746704,243.562164 
	C552.325195,241.572113 555.080811,239.328415 558.951233,238.480286 
z"/>
<path fill="#000000" opacity="1.000000" stroke="none" 
	d="
M403.504822,268.303650 
	C407.539612,279.098480 414.100983,283.458252 425.054535,282.804199 
	C431.522766,282.417969 436.741547,279.753967 439.187775,273.467834 
	C440.652771,269.703247 442.977905,268.431488 446.820129,268.810944 
	C449.458618,269.071564 452.146881,268.783844 454.810486,268.844971 
	C459.553375,268.953857 460.399658,270.052734 458.962708,274.649231 
	C457.458527,279.460754 455.239380,283.961060 451.654083,287.587158 
	C434.939850,304.491608 400.003174,302.554260 388.137512,279.695831 
	C379.195435,262.469513 382.361816,239.639221 396.004578,227.188843 
	C412.019196,212.573868 447.800323,212.821976 458.016327,238.594437 
	C460.645599,245.227463 460.016327,246.264114 452.783478,246.286621 
	C451.117645,246.291809 449.431183,246.118469 447.789917,246.319183 
	C443.166199,246.884613 440.265930,245.546310 438.031067,240.895294 
	C434.904358,234.388290 428.381744,231.998459 421.634583,232.646393 
	C413.538574,233.423828 407.299194,237.770279 404.294861,245.787537 
	C401.571259,253.055603 401.795349,260.460327 403.504822,268.303650 
z"/>
<path fill="#000000" opacity="1.000000" stroke="none" 
	d="
M642.867676,316.292084 
	C629.453674,316.055359 630.938293,318.179993 630.906799,304.949188 
	C630.860840,285.624329 630.887939,266.299255 630.907532,246.974274 
	C630.915710,238.916809 630.945129,238.809937 638.766907,238.943253 
	C642.286438,239.003235 646.115356,237.740585 649.128845,240.999588 
	C650.068848,242.016159 651.275574,240.914185 652.316345,240.439728 
	C669.341492,232.678467 685.140747,240.308426 689.768066,258.359833 
	C691.336609,264.478729 691.452759,270.505859 690.030640,276.617279 
	C685.507812,296.053406 666.552612,303.329437 648.258362,291.695251 
	C648.258362,298.633118 648.129395,305.014954 648.308105,311.388123 
	C648.410706,315.046967 647.025452,316.701080 642.867676,316.292084 
M672.600464,275.819641 
	C673.954346,271.781189 673.897644,267.604736 673.625732,263.449829 
	C673.276978,258.118896 669.446655,253.061661 664.939331,251.643921 
	C659.825623,250.035431 654.597351,251.933670 650.964844,256.897247 
	C647.492920,261.641357 647.040100,267.049896 648.115540,272.607941 
	C649.202637,278.226318 652.052917,282.623291 658.029175,283.832764 
	C664.651123,285.172882 668.592163,282.999786 672.600464,275.819641 
z"/>
<path fill="#000000" opacity="1.000000" stroke="none" 
	d="
M661.706055,358.325104 
	C661.486084,356.050598 661.358093,354.220612 661.033081,352.426300 
	C660.328552,348.536377 658.249695,346.063049 654.001587,346.044708 
	C649.687073,346.026093 646.609924,347.866852 645.317261,352.112335 
	C643.731506,357.320190 644.418274,362.697662 644.327209,368.010651 
	C644.252991,372.341766 644.235229,376.676544 644.326904,381.006866 
	C644.389343,383.952850 643.128723,385.063324 640.173828,385.245544 
	C629.009155,385.933868 628.973267,385.976929 628.964111,374.891418 
	C628.958679,368.392944 629.035034,361.892670 628.908203,355.396484 
	C628.785767,349.124878 626.080750,346.126953 620.888550,346.152832 
	C615.407227,346.180176 612.344849,349.249695 612.177368,355.466949 
	C611.962097,363.459808 611.924377,371.463623 612.074768,379.457733 
	C612.155396,383.743774 610.536316,385.307434 606.188354,385.271606 
	C596.670044,385.193115 596.665344,385.381958 596.665649,375.841583 
	C596.666016,363.344391 596.804504,350.844971 596.597717,338.351257 
	C596.532593,334.417633 597.932312,332.690186 601.745544,333.084900 
	C605.589905,333.482819 610.406555,331.078888 612.556091,336.997375 
	C616.125916,334.987061 619.427917,332.818848 623.557373,332.473114 
	C629.318481,331.990845 634.671936,332.807495 638.700439,337.189178 
	C641.164734,339.869507 642.737732,339.470184 645.203918,337.239441 
	C650.762390,332.211639 657.600342,331.531006 664.466125,333.338562 
	C671.719421,335.248108 675.335815,340.855774 676.191040,348.002502 
	C677.498962,358.931854 676.489563,369.941772 676.812256,380.911987 
	C676.904602,384.051880 675.251709,385.145538 672.136902,385.265137 
	C661.714539,385.665253 661.718262,385.766724 661.714111,375.282196 
	C661.711975,369.783386 661.710449,364.284576 661.706055,358.325104 
z"/>
<path fill="#000000" opacity="1.000000" stroke="none" 
	d="
M539.051392,376.862885 
	C538.996948,369.221680 539.074158,362.059845 538.849365,354.907532 
	C538.663452,348.993683 536.604248,346.590851 532.013489,346.197052 
	C526.729431,345.743774 523.439270,347.912262 522.200562,353.247498 
	C520.333557,361.288696 521.837036,369.504059 521.294312,377.618561 
	C521.129822,380.077942 522.833496,383.668213 519.589966,384.720093 
	C516.031006,385.874268 512.001831,385.730347 508.271576,384.704559 
	C506.508972,384.219879 506.751892,382.309601 506.749512,380.842468 
	C506.726074,366.359009 506.783081,351.875153 506.687622,337.392273 
	C506.667633,334.357208 508.029724,333.154846 510.835175,333.107361 
	C512.499512,333.079193 514.164001,333.057434 515.828552,333.044739 
	C518.963257,333.020782 522.276917,332.758240 521.266357,338.282898 
	C532.146362,330.776550 542.008911,329.899414 551.039856,339.080231 
	C553.032104,339.073090 553.902893,337.652435 555.089905,336.826752 
	C562.073242,331.969299 569.660950,330.943359 577.341858,334.319366 
	C584.899292,337.641052 586.662842,344.980988 587.062317,352.227264 
	C587.583862,361.687439 587.143127,371.198639 587.203308,380.687347 
	C587.222961,383.785858 586.001648,385.085938 582.783081,385.253387 
	C571.667908,385.831604 571.675293,385.928925 571.674988,374.992249 
	C571.674805,368.832581 571.749512,362.671387 571.638489,356.513641 
	C571.506714,349.209015 569.081482,346.109650 563.742920,346.086548 
	C557.928894,346.061401 554.589233,349.612305 554.399475,356.628082 
	C554.187988,364.447021 554.179565,372.279602 554.385376,380.098267 
	C554.487976,383.997559 553.119385,385.720490 549.193726,385.237061 
	C548.537415,385.156250 547.863220,385.217133 547.197327,385.217255 
	C539.158752,385.218719 539.158752,385.218933 539.051392,376.862885 
z"/>
<path fill="#000000" opacity="1.000000" stroke="none" 
	d="
M374.833130,359.839355 
	C371.612457,341.957581 377.140442,327.120483 389.798950,319.026581 
	C406.221008,308.526184 429.141815,313.238831 438.066742,328.950745 
	C443.519440,338.549957 442.484924,340.257721 431.717102,340.452667 
	C427.668732,340.525909 425.230408,339.663055 423.190613,335.612854 
	C420.234467,329.743225 414.449097,327.724487 407.976715,328.162445 
	C401.066254,328.630035 395.803925,331.983124 393.218903,338.377808 
	C389.991394,346.361908 389.819916,354.689819 393.329254,362.648956 
	C396.205994,369.173462 401.782806,372.347412 408.822815,372.630524 
	C415.727844,372.908203 421.209198,370.262817 424.221497,363.762695 
	C425.307129,361.420044 426.859375,360.563812 429.296417,360.709473 
	C433.227783,360.944427 437.221466,360.148804 441.567566,361.330383 
	C441.476227,368.222778 438.402710,373.578064 433.720001,378.001587 
	C418.821259,392.075745 391.348511,389.231445 380.250732,372.559998 
	C377.741516,368.790558 376.060486,364.630585 374.833130,359.839355 
z"/>
<path fill="#000000" opacity="1.000000" stroke="none" 
	d="
M821.942871,332.162750 
	C827.857971,332.285431 832.709473,334.142700 837.764038,339.107147 
	C837.764038,331.201324 837.952820,324.791931 837.696472,318.400421 
	C837.530823,314.271606 839.023010,312.838257 843.157593,312.855469 
	C853.028015,312.896484 853.050415,312.733826 853.059448,322.544983 
	C853.076721,341.360962 852.956543,360.178070 853.145081,378.992188 
	C853.192322,383.706512 851.705078,385.799927 846.843201,385.266205 
	C843.089111,384.854065 838.690247,386.754852 836.497009,381.547180 
	C826.120911,387.986420 815.973083,388.696503 806.808899,380.396851 
	C797.672668,372.122467 796.444153,361.408203 799.643066,350.087677 
	C802.726685,339.174896 809.921997,332.874969 821.942871,332.162750 
M821.199402,345.705658 
	C815.151550,349.445160 812.745850,356.968109 814.917175,365.351562 
	C816.401001,371.080353 819.345703,373.569519 824.986145,373.862976 
	C830.757507,374.163269 834.625793,371.743225 836.552368,366.442078 
	C838.753479,360.385559 838.003174,354.574738 834.092896,349.508148 
	C831.069031,345.590027 827.024292,343.557434 821.199402,345.705658 
z"/>
<path fill="#000000" opacity="1.000000" stroke="none" 
	d="
M495.903046,251.033447 
	C491.588043,251.057831 488.346497,252.240997 486.257111,255.856461 
	C484.081879,259.620544 480.306000,258.083710 477.176178,258.142365 
	C474.663452,258.189453 471.266785,259.529388 469.780273,256.800629 
	C468.178406,253.860138 470.491272,251.021378 472.132690,248.604385 
	C482.175049,233.817001 509.833313,233.922211 518.145020,248.718124 
	C520.228882,252.427628 521.212646,256.492218 521.259888,260.690216 
	C521.376282,271.019196 521.215698,281.351501 521.353333,291.679962 
	C521.398926,295.100250 520.161316,296.864441 516.714600,296.286652 
	C512.439392,295.570007 507.260895,298.691406 503.892975,293.041992 
	C497.027527,297.039062 489.589050,298.054718 481.785339,297.408081 
	C472.893829,296.671326 467.536072,292.734222 466.016571,285.471558 
	C464.292877,277.233032 468.091553,269.029144 475.559479,265.334625 
	C481.032532,262.627014 486.906891,261.596436 493.011078,261.858673 
	C494.508057,261.923004 496.053406,262.105316 497.499634,261.829712 
	C499.963409,261.360229 504.036346,263.534302 504.403168,259.325226 
	C504.735626,255.510147 502.546448,252.301239 498.293518,251.333542 
	C497.646210,251.186264 496.976135,251.139038 495.903046,251.033447 
M502.601440,272.785736 
	C497.631927,272.331848 492.693207,272.157837 487.949921,274.163788 
	C484.957062,275.429474 483.616882,277.634674 484.129608,280.854248 
	C484.654083,284.147217 487.009003,285.072205 489.923035,285.013763 
	C492.230591,284.967499 494.613556,285.053040 496.824188,284.512329 
	C502.436554,283.139679 505.673645,277.076630 502.601440,272.785736 
z"/>
<path fill="#000000" opacity="1.000000" stroke="none" 
	d="
M236.801208,351.172607 
	C224.538544,353.055206 213.210541,351.364960 202.243240,346.625183 
	C195.402039,343.668640 191.096970,339.546204 191.466843,331.196198 
	C191.734131,325.161591 190.236465,319.053467 191.176041,313.118164 
	C193.524796,312.019318 195.072174,313.291748 196.680038,314.034851 
	C203.776154,317.314453 210.971695,320.410431 217.890198,324.033234 
	C223.913132,327.187073 229.516052,326.971222 235.474274,324.000000 
	C244.404053,319.546936 253.482269,315.391418 262.501343,311.117828 
	C264.134735,310.343872 265.787415,309.610565 267.172607,308.976776 
	C268.858978,309.795441 268.980286,310.972473 268.811584,312.150909 
	C267.933899,318.282257 268.264709,324.450989 268.323364,330.597778 
	C268.365936,335.058075 266.538208,338.231750 262.962524,340.643677 
	C255.116089,345.936401 246.379150,349.026184 236.801208,351.172607 
z"/>
<path fill="#000000" opacity="1.000000" stroke="none" 
	d="
M706.065308,238.856934 
	C707.685486,238.845642 708.857422,238.917633 710.014709,238.818497 
	C713.479919,238.521622 714.556213,239.981583 714.536865,243.488724 
	C714.480957,253.624756 713.850281,263.772614 715.120361,273.904083 
	C715.773621,279.115540 718.688477,282.218750 723.414673,283.304932 
	C728.234924,284.412750 731.763245,281.681610 734.207214,277.773743 
	C735.991455,274.920959 736.685608,271.648987 736.675354,268.240753 
	C736.650696,260.083771 736.809937,251.923676 736.626648,243.770859 
	C736.543152,240.055527 737.988403,238.784256 741.600647,238.816711 
	C754.711975,238.934494 752.996460,237.664505 753.047363,249.754715 
	C753.104858,263.405029 752.951172,277.057007 753.107422,290.705750 
	C753.155823,294.933960 751.818176,296.985718 747.358887,296.427063 
	C745.719910,296.221680 744.033630,296.396088 742.368896,296.394318 
	C739.358643,296.391144 735.949341,297.036926 736.495056,291.707825 
	C729.432373,296.146179 723.035522,299.254944 715.144836,297.531281 
	C705.963623,295.525635 699.366272,289.430603 698.891602,279.890991 
	C698.263733,267.273102 698.517273,254.601578 698.703125,241.957703 
	C698.778259,236.849976 703.144104,239.579407 706.065308,238.856934 
z"/>
<path fill="#000000" opacity="1.000000" stroke="none" 
	d="
M785.200928,259.863434 
	C790.624756,261.048126 795.743347,261.618866 800.644165,263.421967 
	C808.670654,266.375122 812.591309,270.728821 813.025513,277.904694 
	C813.460938,285.101624 809.412964,292.099121 802.362915,295.051453 
	C792.109619,299.345123 781.606873,299.478333 771.269165,295.249207 
	C766.080505,293.126526 762.588257,289.175568 761.034790,283.690308 
	C760.068481,280.278015 760.960571,277.860626 764.937073,278.244263 
	C770.239990,278.755859 776.128540,276.880646 780.013367,283.116913 
	C781.934937,286.201660 791.589722,286.069275 794.621460,283.868073 
	C797.598328,281.706726 797.223328,278.143890 793.664795,276.337677 
	C790.058411,274.507233 785.955566,274.367767 782.113098,273.323669 
	C778.586792,272.365387 774.932800,271.686462 771.589783,270.279266 
	C760.569702,265.640625 758.281128,252.227448 766.939331,243.968765 
	C775.983704,235.341919 797.352905,235.312668 806.338684,243.994080 
	C807.632507,245.244095 808.716797,246.796951 809.591675,248.379089 
	C812.578430,253.780365 811.586975,255.425323 805.543579,255.408859 
	C803.212280,255.402512 800.879517,255.384125 798.549866,255.452713 
	C796.663757,255.508240 794.878174,255.552551 793.865356,253.481812 
	C792.509277,250.709259 789.757629,250.061264 787.146362,249.826477 
	C783.534363,249.501770 779.603760,250.097366 778.695801,254.234619 
	C777.717041,258.694153 781.868896,258.873199 785.200928,259.863434 
z"/>
<path fill="#000000" opacity="1.000000" stroke="none" 
	d="
M712.684937,345.155151 
	C707.699524,343.535126 703.905273,344.500610 700.948181,348.610931 
	C699.288696,350.917542 689.195251,351.881958 686.933105,350.114014 
	C685.030579,348.627136 685.919067,346.767487 686.583313,345.118988 
	C689.241760,338.521942 694.574585,334.919556 701.131653,333.294006 
	C706.298401,332.013092 711.669312,331.741852 716.984009,332.876953 
	C725.416504,334.677979 731.612366,341.905304 732.086853,351.700500 
	C732.561951,361.506317 732.213257,371.351044 732.277832,381.178406 
	C732.295959,383.927277 730.979736,385.292175 728.323059,385.038910 
	C724.276001,384.653107 719.508484,386.906403 716.687866,381.832703 
	C709.887390,385.300873 702.936890,387.191193 695.396057,385.665863 
	C687.761047,384.121429 684.106323,380.469543 683.007996,373.259247 
	C682.080750,367.171783 685.850342,360.005219 691.585571,357.036987 
	C697.425781,354.014404 703.763733,354.063202 710.112122,353.936493 
	C712.375061,353.891327 715.617859,355.244446 716.552124,351.896118 
	C717.361084,348.996918 715.412231,346.880371 712.684937,345.155151 
M705.147949,364.195404 
	C703.750610,364.686249 702.256775,365.003143 700.979614,365.710846 
	C699.281982,366.651550 698.308594,368.275452 698.482117,370.261383 
	C698.661255,372.311401 700.133789,373.424713 701.925049,374.141937 
	C706.295959,375.892090 713.809387,373.316010 715.993164,369.242676 
	C717.480103,366.469208 717.263550,364.329132 713.482056,364.151428 
	C710.995850,364.034546 708.500061,364.121521 705.147949,364.195404 
z"/>
<path fill="#000000" opacity="1.000000" stroke="none" 
	d="
M886.037964,362.984436 
	C882.091553,362.986023 878.636841,362.986023 875.006409,362.986023 
	C874.759277,368.004181 876.769165,370.985321 880.307983,373.023102 
	C884.678589,375.539825 889.620056,375.390198 892.950378,372.188263 
	C898.369568,366.977966 904.278442,369.088348 910.510681,368.862213 
	C910.841248,373.596191 908.224548,376.455933 905.654297,379.118256 
	C897.251099,387.822418 881.334167,388.971954 870.010620,381.871643 
	C860.277466,375.768494 856.226257,362.563538 860.227295,350.471313 
	C863.453430,340.721161 870.113647,334.875885 880.046387,332.774170 
	C890.101196,330.646637 898.964172,332.880707 905.788147,340.885101 
	C909.913696,345.724274 911.602051,351.601868 911.994690,357.923035 
	C912.225708,361.641083 910.571045,363.021942 907.016418,362.978638 
	C900.188477,362.895386 893.358582,362.972351 886.037964,362.984436 
M879.135620,353.014404 
	C884.496216,352.838165 889.919678,353.548004 895.256287,352.407928 
	C894.429321,347.055420 891.027405,343.814514 885.904358,343.524902 
	C881.519897,343.277039 878.330322,345.491516 876.316223,349.316376 
	C875.225525,351.387573 875.655273,352.846527 879.135620,353.014404 
z"/>
<path fill="#000000" opacity="1.000000" stroke="none" 
	d="
M776.583008,357.622070 
	C775.586304,353.699310 775.525391,349.769226 772.206238,347.383423 
	C766.839111,343.525513 758.867615,346.690247 757.228577,353.482422 
	C755.288147,361.523560 756.713440,369.752625 756.260742,377.882385 
	C756.130188,380.226776 757.575317,383.653046 754.665588,384.605316 
	C750.771179,385.879883 746.438110,385.836334 742.410095,384.553772 
	C741.112610,384.140625 741.036194,382.363800 741.033508,381.023468 
	C741.004333,366.526672 741.024536,352.029816 740.975220,337.533112 
	C740.964417,334.361908 742.450378,332.762146 745.542480,333.123596 
	C749.631470,333.601501 754.834900,330.727661 757.169128,337.178436 
	C763.395325,333.046570 769.963745,331.330414 777.202148,332.707581 
	C784.313049,334.060394 790.131714,339.455017 791.207275,346.577972 
	C792.957214,358.167419 791.901855,369.860931 791.964783,381.510986 
	C791.977539,383.876709 790.713989,384.980072 788.256653,385.260864 
	C777.354004,386.506470 776.660889,385.946472 776.659180,375.055267 
	C776.658264,369.389801 776.634705,363.724335 776.583008,357.622070 
z"/>
<path fill="#000000" opacity="1.000000" stroke="none" 
	d="
M477.259033,332.666870 
	C491.420410,334.386780 500.197906,344.664459 500.261658,359.130554 
	C500.326630,373.871582 491.585022,384.303650 477.608643,386.164368 
	C464.663116,387.887848 453.532532,382.137329 448.332123,371.038910 
	C443.325195,360.353363 445.954926,346.783752 454.548492,338.933228 
	C460.927734,333.105591 468.586578,331.826294 477.259033,332.666870 
M480.686920,347.807251 
	C473.987061,343.483704 467.648987,344.098480 464.183746,349.744904 
	C461.667816,353.844543 461.205109,358.388153 462.187866,363.198547 
	C463.616852,370.193268 466.578796,373.042023 473.133575,373.060181 
	C479.629517,373.078186 483.620392,369.627014 484.620575,362.950134 
	C485.413849,357.654358 484.760071,352.639801 480.686920,347.807251 
z"/>
<path fill="#000000" opacity="1.000000" stroke="none" 
	d="
M934.603455,337.639771 
	C938.461853,335.029388 942.127075,332.848938 946.781738,333.038574 
	C949.617065,333.154083 951.188049,334.238708 951.103455,337.229767 
	C951.061035,338.728485 950.988403,340.236389 951.099792,341.727448 
	C951.416321,345.965546 950.067505,348.093353 945.262634,348.191040 
	C937.903992,348.340607 933.701660,353.274628 933.412354,361.513306 
	C933.190308,367.838501 933.237427,374.179901 933.389465,380.508698 
	C933.469727,383.852325 932.386902,385.215668 928.836121,385.298615 
	C918.003540,385.551727 918.021423,385.684814 918.044617,374.977875 
	C918.069458,363.479187 918.058777,351.980438 918.071289,340.481720 
	C918.079285,333.176575 918.198792,333.275513 925.699341,332.943390 
	C929.782227,332.762543 933.064087,333.168823 934.603455,337.639771 
z"/>
<path fill="#000000" opacity="1.000000" stroke="none" 
	d="
M801.703003,444.820923 
	C801.705688,438.852325 801.675110,433.358429 801.728638,427.865295 
	C801.746033,426.086121 801.472412,424.037079 804.145142,423.712921 
	C806.365906,423.443634 807.896484,424.124756 809.035278,426.215729 
	C811.067627,429.947388 812.174805,434.231262 815.220825,437.582703 
	C818.320740,436.248535 818.675537,433.361023 819.904785,431.155029 
	C821.036194,429.124634 821.839722,426.908478 823.008362,424.902771 
	C824.072144,423.077026 825.976990,422.878510 827.864441,423.218109 
	C829.711121,423.550323 830.092529,425.049774 830.101135,426.629089 
	C830.140198,433.786774 830.147278,440.944702 830.150024,448.102539 
	C830.150818,450.219788 829.329956,451.680267 826.960754,451.653412 
	C824.538147,451.625977 823.918030,450.035767 823.916504,447.971771 
	C823.914368,445.183167 823.915955,442.394562 823.915955,439.542023 
	C821.332031,439.529755 821.228149,441.369293 820.539856,442.526703 
	C819.376099,444.483765 818.875916,447.026947 815.924683,447.190674 
	C812.585754,447.375854 812.156494,444.433350 810.856628,442.443848 
	C810.241394,441.502167 810.018127,440.275391 808.487183,439.570679 
	C807.618591,442.200989 808.162354,444.831238 808.006531,447.387665 
	C807.882874,449.417908 807.841980,451.588104 805.012146,451.690826 
	C801.880371,451.804504 801.677063,449.613892 801.705444,447.293549 
	C801.713562,446.627777 801.703918,445.961792 801.703003,444.820923 
z"/>
<path fill="#000000" opacity="1.000000" stroke="none" 
	d="
M491.961243,438.488525 
	C494.309265,434.485535 496.528992,430.585602 498.438141,426.539154 
	C499.655945,423.958008 501.559174,423.167999 504.081299,423.654510 
	C506.639465,424.147919 506.104156,426.402283 506.122559,428.114502 
	C506.190521,434.438385 506.170685,440.764130 506.093933,447.088074 
	C506.070374,449.025940 506.328491,451.311676 503.307007,451.427521 
	C500.148804,451.548645 499.932190,449.440094 499.947876,447.103363 
	C499.966278,444.360168 499.952179,441.616760 499.952179,438.459686 
	C497.116180,439.932983 496.760773,442.240356 495.724609,444.043182 
	C494.777649,445.690918 493.897705,447.223785 491.682709,447.219788 
	C489.432556,447.215759 488.589294,445.559662 487.706085,443.941101 
	C486.764709,442.215912 485.850830,440.475708 484.694550,438.310638 
	C483.258942,441.754791 483.743286,444.812958 483.847870,447.856750 
	C483.914215,449.788513 483.616089,451.613770 480.976227,451.560059 
	C478.667053,451.513062 477.740906,450.273438 477.744965,448.068085 
	C477.757843,441.077789 477.724670,434.087372 477.737946,427.097107 
	C477.740845,425.569275 477.820312,424.010406 479.837738,423.699371 
	C481.727325,423.408051 483.316071,423.454956 484.534546,425.465240 
	C487.114471,429.721741 488.288147,434.742554 491.961243,438.488525 
z"/>
<path fill="#000000" opacity="1.000000" stroke="none" 
	d="
M447.240417,442.544739 
	C447.245453,444.616333 447.231812,446.281128 447.250610,447.945557 
	C447.273804,450.000061 446.748077,451.615479 444.290192,451.663879 
	C441.955627,451.709869 441.015594,450.368958 441.012543,448.204712 
	C441.002777,441.213501 440.974335,434.221954 441.037476,427.231323 
	C441.052307,425.587433 441.121765,423.715424 443.358368,423.396484 
	C445.521088,423.088196 447.201874,423.737030 448.265442,425.889191 
	C450.386078,430.180359 452.073181,434.720123 455.292389,438.917511 
	C458.189178,435.334564 459.741211,431.310516 461.454987,427.485718 
	C463.101776,423.810638 465.343109,422.970978 469.309357,424.293396 
	C469.309357,432.273621 469.303680,440.229523 469.313385,448.185425 
	C469.315735,450.115082 468.678040,451.345795 466.477478,451.422638 
	C464.128448,451.504700 463.704163,450.107178 463.705841,448.238831 
	C463.708923,444.796326 463.706696,441.353851 463.706696,437.520477 
	C460.852661,439.226379 460.613770,441.906860 459.411438,443.972168 
	C458.486786,445.560516 457.700256,447.220276 455.425659,447.236206 
	C453.192902,447.251862 452.209595,445.778320 451.334229,444.116272 
	C450.340546,442.229675 449.383514,440.323792 448.350555,438.309326 
	C446.716797,439.504211 447.502258,440.949249 447.240417,442.544739 
z"/>
<path fill="#000000" opacity="1.000000" stroke="none" 
	d="
M548.326416,445.919617 
	C548.230896,448.803101 548.799683,451.846283 544.881104,451.546539 
	C541.326050,451.274628 542.184631,448.310516 542.189209,446.156677 
	C542.202332,440.014862 542.392212,433.873505 542.503235,427.731812 
	C542.535034,425.972412 541.852234,423.869080 544.435608,423.280426 
	C546.608398,422.785370 548.318237,423.543030 549.565613,425.431702 
	C551.762329,428.757843 554.013794,432.047699 556.232483,435.359314 
	C557.025085,436.542297 557.426331,438.091949 559.662842,438.568054 
	C559.662842,435.968323 559.604370,433.535919 559.679810,431.107666 
	C559.750977,428.815460 559.281738,426.470673 560.168762,424.218384 
	C561.786682,423.272919 563.331970,423.417145 565.318420,424.455444 
	C565.318420,432.375946 565.319946,440.490265 565.316895,448.604584 
	C565.316345,450.024841 565.063599,451.289337 563.324402,451.526917 
	C561.354797,451.796021 559.776123,451.286377 558.620483,449.509430 
	C555.552917,444.792542 552.409058,440.125244 548.327087,435.482269 
	C548.327087,438.813019 548.327087,442.143738 548.326416,445.919617 
z"/>
<path fill="#000000" opacity="1.000000" stroke="none" 
	d="
M411.283081,426.177612 
	C417.816376,421.925262 423.940704,421.623901 428.763367,425.068359 
	C433.331116,428.330719 435.653809,435.959473 433.989227,442.232086 
	C432.269379,448.713074 426.688171,452.636505 419.762482,452.233002 
	C412.993225,451.838654 407.740784,446.827545 406.942719,439.808197 
	C406.374359,434.808960 407.408813,430.214233 411.283081,426.177612 
M415.434784,431.012451 
	C413.686188,433.393127 412.979034,436.030823 413.264191,438.990936 
	C413.737915,443.908936 417.781311,447.536499 421.932465,446.428802 
	C425.739716,445.412811 427.548676,442.407227 428.258453,438.793274 
	C429.001099,435.012054 427.428436,431.835510 424.520447,429.625488 
	C421.632690,427.430908 418.583649,427.966064 415.434784,431.012451 
z"/>
<path fill="#000000" opacity="1.000000" stroke="none" 
	d="
M642.823853,426.858307 
	C649.201904,421.665649 656.668762,421.373322 661.700134,425.844879 
	C666.804871,430.381653 667.941650,439.691437 664.169067,446.063049 
	C660.894165,451.594055 654.400452,453.617798 647.543945,451.244293 
	C641.965027,449.312988 637.962341,441.816254 639.104187,435.324982 
	C639.628418,432.344849 640.687500,429.561310 642.823853,426.858307 
M645.263916,437.517456 
	C645.349304,441.439758 646.414246,444.805420 650.552307,446.223999 
	C653.568909,447.258087 656.259216,446.393402 658.202393,444.019653 
	C661.279663,440.260468 661.327148,436.080688 659.058044,431.890686 
	C657.539795,429.087341 655.015686,427.866577 651.932373,428.478760 
	C647.536865,429.351501 645.680054,432.503326 645.263916,437.517456 
z"/>
<path fill="#000000" opacity="1.000000" stroke="none" 
	d="
M716.423157,447.584717 
	C716.075317,446.971222 715.944763,446.655792 715.742310,446.396454 
	C714.390015,444.664398 714.257263,441.228119 711.338623,441.669861 
	C708.050171,442.167572 709.472473,445.397034 709.228516,447.499176 
	C708.981995,449.624359 708.894409,451.538239 705.986084,451.438080 
	C703.176514,451.341309 702.854065,449.486755 702.855835,447.334198 
	C702.861511,440.514526 702.861450,433.694733 702.900696,426.875214 
	C702.910583,425.154907 703.142395,423.265991 705.263672,423.060516 
	C710.244019,422.578094 715.343445,422.429596 719.912659,424.715302 
	C723.959961,426.739868 725.564270,433.467102 722.296082,436.911377 
	C718.857971,440.534790 719.811218,443.142700 722.090454,446.388916 
	C722.925659,447.578491 723.836670,448.847198 723.536194,450.780548 
	C720.239563,452.327576 718.023071,451.198395 716.423157,447.584717 
M713.219177,428.361633 
	C710.633057,428.152527 709.066284,428.994019 709.223999,431.940094 
	C709.327515,433.873749 709.399841,435.665710 711.956238,435.813110 
	C714.202576,435.942657 716.501160,435.865417 717.322144,433.328918 
	C718.236633,430.503632 716.694031,428.968079 713.219177,428.361633 
z"/>
<path fill="#000000" opacity="1.000000" stroke="none" 
	d="
M597.540894,437.132629 
	C596.593018,448.747711 587.016724,454.784027 575.906372,451.234406 
	C574.629822,450.826599 573.813049,450.143890 573.802124,448.832123 
	C573.738159,441.178864 573.717041,433.525146 573.706055,425.871582 
	C573.704163,424.573914 574.297546,423.482544 575.651917,423.368927 
	C581.795227,422.853516 588.037537,422.170288 593.293152,426.471222 
	C596.484131,429.082581 597.502625,432.739838 597.540894,437.132629 
M584.126953,428.371124 
	C580.747681,427.929810 579.208191,429.321289 579.371948,432.810822 
	C579.518860,435.942505 579.441284,439.089050 579.354126,442.226044 
	C579.276611,445.013306 580.622253,446.048248 583.292480,445.990295 
	C587.695435,445.894806 590.464844,443.828003 591.455139,439.526672 
	C592.626770,434.437500 590.466064,430.835297 584.126953,428.371124 
z"/>
<path fill="#000000" opacity="1.000000" stroke="none" 
	d="
M375.000122,438.729187 
	C375.843323,425.382050 386.232971,418.648895 396.389923,424.461975 
	C399.437897,426.206390 401.450928,428.661194 401.233215,432.676880 
	C398.688416,433.584686 396.656128,433.706299 394.583862,431.368073 
	C389.958618,426.149292 384.468781,427.339417 382.048126,433.873932 
	C380.470978,438.131256 381.916504,443.402283 385.400452,445.416443 
	C389.463715,447.765533 392.686493,446.534760 395.234222,442.804138 
	C396.577942,440.836578 398.636536,440.436340 400.500671,441.585236 
	C402.692810,442.936279 401.286804,444.882538 400.490112,446.414307 
	C396.481995,454.120880 383.244537,454.160919 377.941162,446.511200 
	C376.402161,444.291382 375.468201,441.811157 375.000122,438.729187 
z"/>
<path fill="#000000" opacity="1.000000" stroke="none" 
	d="
M880.939453,439.559082 
	C880.979553,435.116089 880.954773,431.117615 881.058899,427.122559 
	C881.112122,425.080902 881.885193,423.638885 884.356995,423.689636 
	C886.921387,423.742279 887.343933,425.330444 887.338562,427.343140 
	C887.324829,432.506592 887.510620,437.682983 887.204834,442.829742 
	C886.895691,448.031494 882.865845,451.551361 877.184753,452.173584 
	C871.261597,452.822327 866.375122,450.130432 864.832275,445.121490 
	C862.926941,438.935883 863.893433,432.557556 863.917419,426.254669 
	C863.925903,424.041077 865.624512,423.689453 867.446716,423.710541 
	C869.297485,423.731964 870.203613,424.698700 870.225769,426.490295 
	C870.279419,430.820526 870.348816,435.151672 870.309692,439.481537 
	C870.277039,443.096497 871.529663,446.016754 875.397095,446.214172 
	C879.294434,446.413116 880.887878,443.692810 880.939453,439.559082 
z"/>
<path fill="#000000" opacity="1.000000" stroke="none" 
	d="
M904.122803,452.187042 
	C900.202393,451.625305 896.733459,450.971619 894.727051,447.562042 
	C893.964417,446.266083 893.130188,444.679993 894.490479,443.462219 
	C895.837158,442.256653 897.726746,442.290192 899.034180,443.575287 
	C900.507446,445.023315 901.980652,446.339294 904.083923,446.488129 
	C906.044678,446.626862 907.897400,445.950470 908.477295,443.949768 
	C909.155945,441.607971 907.378357,440.709564 905.483887,440.193512 
	C903.239014,439.581970 900.909363,439.223206 898.732361,438.434845 
	C895.439087,437.242188 893.679504,434.828125 893.701843,431.190826 
	C893.723572,427.654175 895.226746,425.210266 898.479309,423.709564 
	C905.301880,420.561646 912.746460,423.830383 913.827393,430.735748 
	C911.407837,431.782562 909.215210,432.079834 907.274292,429.624725 
	C905.879150,427.859985 904.012573,427.402374 901.908081,428.375336 
	C900.719971,428.924652 900.096130,429.909332 900.274597,431.185760 
	C900.623413,433.680237 902.719727,434.067535 904.655029,434.582428 
	C905.617004,434.838348 906.584656,435.094025 907.565369,435.254028 
	C912.203552,436.010651 915.345276,438.168610 915.242920,443.378693 
	C915.156738,447.766937 912.143066,450.941376 907.028625,452.011810 
	C906.221802,452.180664 905.371643,452.141815 904.122803,452.187042 
z"/>
<path fill="#000000" opacity="1.000000" stroke="none" 
	d="
M767.260010,431.436676 
	C764.635681,434.826752 762.473999,433.575012 760.426331,431.074890 
	C757.828674,427.903290 754.643799,427.289337 751.108887,429.251678 
	C747.710999,431.137909 746.296997,436.690887 747.822510,441.364532 
	C749.028992,445.060608 751.802002,446.584747 755.442566,446.548431 
	C757.946472,446.523468 759.719788,445.014313 761.085449,442.946228 
	C762.389648,440.971161 764.448120,440.405182 766.282410,441.679596 
	C768.625061,443.307098 766.993774,445.261322 765.887878,446.851562 
	C762.409485,451.853027 755.754883,453.472992 749.304199,450.997650 
	C743.911316,448.928253 740.378479,442.441956 741.064026,435.868652 
	C741.817566,428.643646 746.097290,423.822876 752.681030,422.782867 
	C759.464539,421.711273 764.453125,424.548401 767.260010,431.436676 
z"/>
<path fill="#000000" opacity="1.000000" stroke="none" 
	d="
M695.881958,438.716278 
	C695.554688,448.027924 691.803101,452.281311 684.332642,452.270996 
	C677.913269,452.262146 673.814880,448.969971 673.239746,442.553894 
	C672.781372,437.441742 673.055786,432.258392 673.120483,427.108063 
	C673.142029,425.390686 673.568420,423.794403 675.888123,423.741943 
	C678.282410,423.687836 679.163147,424.957275 679.177979,427.118896 
	C679.207520,431.441559 679.252808,435.764587 679.223877,440.087036 
	C679.200439,443.588928 679.928894,446.604126 684.197571,446.635315 
	C688.623535,446.667664 689.650330,443.581757 689.691040,439.890442 
	C689.736938,435.733978 689.734009,431.576935 689.754089,427.420166 
	C689.763672,425.428192 690.103943,423.782043 692.682495,423.735657 
	C695.220947,423.690033 695.780823,425.297638 695.824829,427.282135 
	C695.905945,430.938416 695.869812,434.597229 695.881958,438.716278 
z"/>
<path fill="#000000" opacity="1.000000" stroke="none" 
	d="
M773.718079,440.770752 
	C775.685852,435.609589 777.516541,430.808350 779.405396,426.030182 
	C780.106750,424.255890 781.123169,422.824768 783.381104,422.910339 
	C785.602234,422.994507 786.540161,424.447296 787.221130,426.239716 
	C789.868286,433.207794 792.548706,440.163696 795.121155,447.159271 
	C795.638062,448.564911 796.988342,450.439606 794.574219,451.375885 
	C792.526123,452.170227 790.345032,451.834656 789.701965,449.420959 
	C788.251892,443.977753 784.027588,445.419861 780.399536,445.415314 
	C778.361938,445.412750 777.730652,447.099365 777.111938,448.668640 
	C775.868225,451.822784 773.673706,452.320862 770.605591,451.013306 
	C770.312988,447.264130 772.650208,444.399902 773.718079,440.770752 
M782.685791,439.647888 
	C786.013733,438.444214 786.038879,438.022919 782.808411,434.137634 
	C781.846802,435.889618 780.360718,437.350342 782.685791,439.647888 
z"/>
<path fill="#000000" opacity="1.000000" stroke="none" 
	d="
M517.321655,450.244263 
	C515.341980,451.880005 513.546021,452.164642 511.298523,450.496582 
	C513.997253,441.888916 517.187683,433.377533 520.947937,425.109314 
	C522.412720,421.888519 526.153137,421.844452 527.476868,425.033173 
	C530.956238,433.415222 533.975464,441.988312 537.209961,450.570129 
	C534.034302,452.299286 531.541870,452.301483 530.587646,449.233978 
	C529.402222,445.423370 526.807007,445.399292 523.642456,445.248199 
	C520.024658,445.075500 518.608093,447.127197 517.321655,450.244263 
M525.365356,434.865875 
	C524.941589,434.315826 524.614563,432.828796 523.768494,434.006165 
	C522.738953,435.438782 521.959473,437.191315 522.262329,439.371948 
	C526.530029,440.722687 526.607117,438.572327 525.365356,434.865875 
z"/>
<path fill="#000000" opacity="1.000000" stroke="none" 
	d="
M837.824280,425.351990 
	C842.521790,421.006165 854.420654,422.905060 857.160095,427.966095 
	C860.414978,433.979309 857.095825,440.561066 849.907715,441.490723 
	C845.764343,442.026611 843.366760,443.214111 843.890686,447.867035 
	C844.106323,449.783142 843.544556,451.596771 841.023560,451.650360 
	C838.340820,451.707336 837.693665,450.048553 837.706055,447.750153 
	C837.745483,440.437836 837.742920,433.125275 837.824280,425.351990 
M844.073120,430.886993 
	C844.013489,433.008179 843.588928,435.375336 846.597229,435.868439 
	C848.813721,436.231781 850.880371,435.951660 851.993286,433.582886 
	C852.864563,431.728394 851.994202,430.223022 850.564941,429.373413 
	C848.412231,428.093781 846.024902,427.280518 844.073120,430.886993 
z"/>
<path fill="#000000" opacity="1.000000" stroke="none" 
	d="
M614.594849,423.688965 
	C617.499634,423.274994 618.931824,424.521393 620.066956,426.680389 
	C621.202026,428.839172 622.173828,431.178070 624.212463,432.825745 
	C628.570190,430.516418 628.004700,421.473938 636.096375,424.197784 
	C635.844421,427.545685 633.645325,429.761261 632.040588,432.176636 
	C628.942200,436.840240 626.444153,441.551697 627.256409,447.441101 
	C627.502991,449.228821 627.467468,451.259094 624.728821,451.363434 
	C621.842163,451.473358 621.343872,449.554840 621.659851,447.415924 
	C622.776978,439.855438 617.870789,434.709290 614.608826,428.846100 
	C613.826721,427.440277 610.704224,425.656006 614.594849,423.688965 
z"/>
</svg>