<?xml version="1.0" encoding="UTF-8"?>
<svg xmlns="http://www.w3.org/2000/svg" xmlns:xlink="http://www.w3.org/1999/xlink" width="180px" height="120px" viewBox="0 0 179 120" version="1.1">
<g id="surface1">
<path style=" stroke:none;fill-rule:evenodd;fill:rgb(3.921569%,18.431373%,30.19608%);fill-opacity:1;" d="M 37.847656 36.601562 C 38.058594 36.628906 38.371094 36.628906 38.546875 36.601562 C 38.722656 36.574219 38.550781 36.550781 38.164062 36.554688 C 37.78125 36.554688 37.636719 36.574219 37.847656 36.601562 M 39.886719 36.601562 C 40.0625 36.628906 40.347656 36.628906 40.527344 36.601562 C 40.703125 36.574219 40.558594 36.550781 40.207031 36.550781 C 39.851562 36.550781 39.707031 36.574219 39.886719 36.601562 M 41.34375 36.71875 C 41.488281 36.746094 41.699219 36.742188 41.808594 36.714844 C 41.921875 36.683594 41.800781 36.660156 41.546875 36.664062 C 41.289062 36.664062 41.199219 36.6875 41.34375 36.71875 M 46.03125 37.863281 C 46.191406 37.953125 46.375 38.03125 46.441406 38.03125 C 46.503906 38.03125 46.425781 37.953125 46.265625 37.863281 C 46.105469 37.769531 45.921875 37.695312 45.855469 37.695312 C 45.792969 37.695312 45.871094 37.769531 46.03125 37.863281 M 46.964844 38.273438 C 47.1875 38.394531 47.425781 38.496094 47.488281 38.496094 C 47.550781 38.496094 47.421875 38.394531 47.199219 38.273438 C 46.972656 38.148438 46.738281 38.046875 46.671875 38.046875 C 46.609375 38.046875 46.738281 38.148438 46.964844 38.273438 M 72.425781 38.320312 C 67.78125 39.226562 65.585938 44.140625 67.757812 48.765625 C 70.007812 53.554688 78.132812 53.226562 79.828125 48.28125 C 80.1875 47.226562 80.269531 47.285156 78.488281 47.285156 C 77.148438 47.285156 76.914062 47.3125 76.914062 47.464844 C 76.914062 49.203125 74.019531 50.273438 72.050781 49.265625 C 69.289062 47.847656 69.28125 42.550781 72.035156 41.019531 C 73.753906 40.066406 76.246094 40.871094 76.804688 42.5625 L 76.933594 42.953125 L 78.496094 42.953125 C 79.355469 42.953125 80.058594 42.914062 80.058594 42.867188 C 80.019531 40 76.019531 37.617188 72.425781 38.320312 M 29.636719 39.429688 C 29.070312 39.8125 28.503906 40.238281 28.375 40.382812 C 28.25 40.527344 28.496094 40.375 28.929688 40.050781 C 29.359375 39.722656 29.949219 39.316406 30.238281 39.144531 C 30.710938 38.867188 30.859375 38.742188 30.714844 38.742188 C 30.6875 38.742188 30.203125 39.050781 29.636719 39.429688 M 48.246094 38.882812 C 48.363281 39.011719 50.578125 40.496094 50.578125 40.445312 C 50.578125 40.367188 49.210938 39.402344 48.652344 39.082031 C 48.398438 38.9375 48.214844 38.84375 48.246094 38.882812 M 38.371094 39.878906 C 38.546875 39.90625 38.8125 39.902344 38.953125 39.875 C 39.097656 39.847656 38.953125 39.828125 38.632812 39.828125 C 38.3125 39.828125 38.195312 39.851562 38.371094 39.878906 M 39.707031 39.878906 C 39.914062 39.902344 40.28125 39.90625 40.523438 39.878906 C 40.765625 39.855469 40.59375 39.832031 40.148438 39.832031 C 39.699219 39.832031 39.5 39.851562 39.707031 39.878906 M 50.808594 40.640625 C 50.808594 40.667969 51.269531 41.105469 51.828125 41.613281 C 52.390625 42.121094 52.746094 42.414062 52.617188 42.265625 C 52.339844 41.941406 50.808594 40.566406 50.808594 40.640625 M 27.089844 41.578125 L 26.277344 42.425781 L 27.125 41.609375 C 27.910156 40.851562 28.023438 40.730469 27.9375 40.730469 C 27.917969 40.730469 27.539062 41.113281 27.089844 41.578125 M 33.445312 41.082031 C 33.222656 41.203125 33.089844 41.304688 33.15625 41.304688 C 33.21875 41.304688 33.453125 41.203125 33.679688 41.082031 C 33.902344 40.957031 34.035156 40.855469 33.96875 40.855469 C 33.90625 40.855469 33.671875 40.957031 33.445312 41.082031 M 45.914062 41.4375 C 46.214844 41.644531 46.964844 42.023438 46.964844 41.972656 C 46.964844 41.910156 45.917969 41.316406 45.8125 41.316406 C 45.773438 41.316406 45.820312 41.371094 45.914062 41.4375 M 54.304688 41.84375 C 53.644531 42.199219 53.773438 42.222656 54.480469 41.875 C 54.949219 41.648438 55.042969 41.636719 55.273438 41.777344 C 55.507812 41.925781 55.515625 41.921875 55.371094 41.742188 C 55.15625 41.484375 54.933594 41.503906 54.304688 41.84375 M 85.671875 41.789062 C 84.15625 41.996094 82.742188 42.921875 82.203125 44.066406 C 81.734375 45.0625 81.730469 45.0625 83.242188 45.0625 L 84.5625 45.0625 L 84.757812 44.644531 C 85.507812 43.066406 87.929688 43.648438 88.175781 45.46875 L 88.25 45.996094 L 86.632812 46 C 84.898438 46 83.761719 46.179688 83.007812 46.566406 C 81.0625 47.5625 80.792969 50.457031 82.542969 51.542969 C 83.71875 52.273438 86.546875 52.078125 87.707031 51.191406 L 88.21875 50.796875 L 88.21875 51.730469 L 89.238281 51.75 C 89.796875 51.757812 90.378906 51.769531 90.527344 51.773438 L 90.792969 51.78125 L 90.800781 48.4375 C 90.804688 45.71875 90.773438 44.972656 90.625 44.453125 C 90.03125 42.414062 88.21875 41.4375 85.671875 41.789062 M 103.964844 41.804688 C 103.222656 41.921875 102.367188 42.363281 101.863281 42.886719 L 101.503906 43.257812 L 100.886719 42.660156 C 99.617188 41.425781 97.421875 41.453125 95.976562 42.726562 L 95.574219 43.082031 L 95.539062 42.535156 L 95.5 41.984375 L 94.191406 41.945312 L 92.878906 41.90625 L 92.878906 51.847656 L 95.558594 51.847656 L 95.558594 48.714844 C 95.558594 44.664062 95.804688 44.074219 97.484375 44.074219 C 99.003906 44.074219 99.195312 44.578125 99.214844 48.644531 L 99.230469 51.847656 L 101.839844 51.847656 L 101.875 48.601562 C 101.917969 44.582031 102.160156 44.015625 103.832031 44.011719 C 105.359375 44.003906 105.574219 44.578125 105.578125 48.660156 L 105.582031 51.847656 L 108.28125 51.847656 L 108.238281 48.132812 C 108.199219 44.597656 108.183594 44.382812 107.933594 43.753906 C 107.316406 42.203125 105.878906 41.496094 103.964844 41.804688 M 114.824219 41.832031 C 114.15625 41.996094 113.820312 42.1875 113.386719 42.644531 C 113 43.054688 112.949219 43.035156 113.003906 42.492188 L 113.050781 42.03125 L 111.695312 41.996094 C 110.949219 41.976562 110.316406 41.980469 110.292969 42.007812 C 110.265625 42.035156 110.242188 45.023438 110.242188 48.648438 L 110.242188 55.242188 L 113.050781 55.242188 L 113.015625 52.960938 C 112.996094 51.707031 113.011719 50.679688 113.050781 50.679688 C 113.085938 50.679688 113.242188 50.816406 113.398438 50.984375 C 115.148438 52.867188 118.730469 52.03125 119.929688 49.457031 C 121.867188 45.300781 118.882812 40.84375 114.824219 41.832031 M 135.925781 41.832031 C 133.507812 42.386719 132.34375 44.613281 133.601562 46.273438 C 134.222656 47.09375 134.835938 47.34375 137.8125 47.988281 C 138.597656 48.160156 139.121094 48.492188 139.21875 48.882812 C 139.574219 50.316406 136.570312 50.675781 135.707031 49.300781 L 135.472656 48.933594 L 134.148438 48.925781 L 132.824219 48.921875 L 132.902344 49.363281 C 133.210938 51.097656 134.773438 52.03125 137.339844 52.015625 C 140.246094 52.003906 141.75 50.925781 141.761719 48.855469 C 141.773438 47.105469 140.894531 46.410156 137.875 45.769531 C 135.796875 45.332031 135.328125 44.917969 135.933594 44.050781 C 136.472656 43.28125 138.792969 43.585938 138.792969 44.425781 C 138.792969 44.558594 139.058594 44.59375 140.136719 44.59375 C 141.660156 44.59375 141.695312 44.5625 141.253906 43.589844 C 140.609375 42.164062 138.09375 41.335938 135.925781 41.832031 M 31.542969 42.144531 C 31.242188 42.34375 30.964844 42.5625 30.925781 42.625 C 30.867188 42.722656 31.984375 42 32.152344 41.832031 C 32.304688 41.683594 32.019531 41.832031 31.542969 42.144531 M 122.082031 42.019531 C 121.875 42.433594 122.101562 49.402344 122.335938 49.910156 C 123.429688 52.292969 126.417969 52.8125 128.277344 50.949219 L 128.773438 50.449219 L 128.773438 51.847656 L 131.335938 51.847656 L 131.335938 41.960938 L 130.054688 41.980469 L 128.773438 42.003906 L 128.71875 44.898438 C 128.640625 48.910156 128.269531 49.742188 126.5625 49.742188 C 124.929688 49.742188 124.578125 48.855469 124.578125 44.734375 L 124.578125 41.960938 L 123.34375 41.960938 C 122.664062 41.960938 122.097656 41.984375 122.082031 42.019531 M 25.71875 43.074219 C 25.140625 43.828125 25.226562 43.824219 25.859375 43.070312 C 26.128906 42.75 26.308594 42.488281 26.257812 42.492188 C 26.203125 42.492188 25.960938 42.757812 25.71875 43.074219 M 29.625 43.746094 L 28.589844 44.769531 L 29.53125 43.898438 C 30.050781 43.417969 30.550781 42.957031 30.644531 42.871094 C 30.738281 42.789062 30.78125 42.71875 30.734375 42.71875 C 30.691406 42.71875 30.191406 43.179688 29.625 43.746094 M 49 43.632812 C 49.316406 43.96875 49.589844 44.242188 49.605469 44.242188 C 49.726562 44.242188 49.414062 43.871094 48.960938 43.484375 L 48.421875 43.023438 L 49 43.632812 M 115.992188 43.898438 C 118.53125 44.605469 118.257812 49.617188 115.667969 49.835938 C 113.96875 49.976562 113.050781 49.09375 112.949219 47.210938 C 112.828125 44.976562 114.261719 43.417969 115.992188 43.898438 M 24.847656 44.328125 C 24.722656 44.507812 24.5625 44.769531 24.484375 44.914062 C 24.238281 45.386719 24.429688 45.191406 24.800781 44.59375 C 25.1875 43.964844 25.21875 43.796875 24.847656 44.328125 M 28.300781 45.148438 C 27.96875 45.554688 27.824219 45.761719 27.882812 45.761719 C 27.914062 45.761719 28.082031 45.578125 28.253906 45.351562 C 28.570312 44.933594 28.609375 44.777344 28.300781 45.148438 M 38.75 45.140625 C 37.757812 45.414062 29.164062 49.636719 28.871094 49.988281 C 28.429688 50.523438 28.691406 50.863281 30.066406 51.5625 C 30.546875 51.808594 30.960938 52.019531 30.984375 52.039062 C 31.007812 52.058594 30.9375 52.160156 30.828125 52.269531 C 30.132812 52.972656 29.835938 54.292969 30.195312 55.128906 C 30.402344 55.613281 30.429688 55.828125 30.359375 56.382812 C 30.117188 58.238281 30.289062 58.871094 31.023438 58.871094 C 31.851562 58.871094 32.195312 58.148438 31.878906 57.0625 C 31.667969 56.328125 31.640625 55.410156 31.832031 55.292969 C 31.960938 55.210938 31.902344 53.738281 31.753906 53.351562 C 31.597656 52.9375 32.175781 52.582031 35.402344 51.109375 C 38.824219 49.546875 39.066406 49.480469 39.695312 49.871094 C 40.429688 50.324219 40.324219 50.40625 37.054688 51.902344 C 35.386719 52.667969 34.0625 53.328125 34.113281 53.378906 C 34.359375 53.609375 38.457031 55.851562 38.84375 55.96875 C 39.574219 56.191406 42.503906 54.9375 48.246094 51.945312 C 51.382812 50.3125 51.382812 50.308594 47.761719 48.609375 C 40.410156 45.164062 39.675781 44.878906 38.75 45.140625 M 24.066406 45.644531 C 23.964844 45.839844 23.910156 45.996094 23.941406 45.996094 C 23.972656 45.996094 24.082031 45.839844 24.179688 45.644531 C 24.28125 45.453125 24.335938 45.292969 24.304688 45.292969 C 24.273438 45.292969 24.164062 45.453125 24.066406 45.644531 M 54.914062 46.230469 C 54.914062 46.457031 54.941406 46.546875 54.96875 46.4375 C 55 46.324219 55 46.140625 54.96875 46.027344 C 54.941406 45.914062 54.914062 46.003906 54.914062 46.230469 M 23.675781 46.410156 C 23.480469 46.84375 23.519531 46.933594 23.730469 46.542969 C 23.828125 46.359375 23.886719 46.1875 23.859375 46.160156 C 23.832031 46.136719 23.75 46.246094 23.675781 46.410156 M 27.359375 46.496094 C 27.097656 46.890625 26.550781 48.003906 26.589844 48.046875 C 26.613281 48.066406 26.847656 47.667969 27.117188 47.15625 C 27.597656 46.242188 27.691406 45.980469 27.359375 46.496094 M 49.539062 46.507812 C 49.65625 46.617188 50.808594 47.164062 50.808594 47.113281 C 50.808594 47.046875 49.695312 46.464844 49.570312 46.464844 C 49.527344 46.464844 49.511719 46.484375 49.539062 46.507812 M 51.394531 47.460938 C 51.554688 47.550781 51.738281 47.628906 51.800781 47.628906 C 51.863281 47.628906 51.785156 47.550781 51.625 47.460938 C 51.464844 47.367188 51.28125 47.292969 51.21875 47.292969 C 51.152344 47.292969 51.234375 47.367188 51.394531 47.460938 M 23.066406 47.945312 C 23.003906 48.117188 22.96875 48.308594 22.988281 48.371094 C 23.007812 48.433594 23.085938 48.292969 23.15625 48.058594 C 23.304688 47.570312 23.242188 47.488281 23.066406 47.945312 M 88.21875 48.148438 C 88.21875 49.089844 87.140625 50.039062 86.003906 50.105469 C 84.867188 50.171875 84.253906 49.785156 84.253906 49 C 84.253906 48.03125 84.984375 47.667969 86.964844 47.648438 L 88.21875 47.636719 L 88.21875 48.148438 M 54.472656 48.46875 C 54.425781 48.546875 54.226562 48.570312 53.972656 48.53125 C 53.679688 48.484375 53.601562 48.496094 53.722656 48.574219 C 53.984375 48.742188 54.375 48.710938 54.539062 48.515625 C 54.617188 48.417969 54.65625 48.339844 54.617188 48.339844 C 54.582031 48.339844 54.515625 48.394531 54.472656 48.46875 M 22.171875 53.605469 C 22.171875 53.894531 22.195312 54.011719 22.222656 53.867188 C 22.25 53.722656 22.25 53.484375 22.222656 53.339844 C 22.195312 53.195312 22.171875 53.316406 22.171875 53.605469 M 25.433594 53.605469 C 25.433594 53.832031 25.457031 53.921875 25.484375 53.808594 C 25.515625 53.695312 25.515625 53.511719 25.484375 53.398438 C 25.457031 53.289062 25.433594 53.378906 25.433594 53.605469 M 46.433594 54.289062 C 46.28125 54.425781 40.839844 56.988281 40.277344 57.1875 C 39.289062 57.542969 38.710938 57.347656 34.09375 55.109375 C 33.714844 54.925781 33.378906 54.773438 33.351562 54.773438 C 33.230469 54.773438 33.476562 58.953125 33.621094 59.296875 C 34.476562 61.359375 39.851562 62.117188 43.527344 60.6875 C 46.167969 59.660156 46.535156 59.191406 46.582031 56.792969 C 46.601562 55.78125 46.632812 54.78125 46.652344 54.570312 C 46.683594 54.183594 46.628906 54.113281 46.433594 54.289062 M 53.433594 54.996094 C 53.496094 55.058594 53.707031 55.148438 53.898438 55.191406 C 54.347656 55.300781 54.246094 55.199219 53.726562 55.023438 C 53.503906 54.949219 53.371094 54.9375 53.433594 54.996094 M 70.679688 55.121094 C 66.296875 55.628906 64.003906 60.335938 66.074219 64.566406 C 68.265625 69.039062 76.035156 68.457031 76.863281 63.757812 L 76.941406 63.320312 L 74.28125 63.320312 L 74.128906 63.738281 C 73.28125 66.097656 69.449219 65.964844 68.410156 63.539062 C 67.625 61.707031 67.984375 59.238281 69.1875 58.175781 C 70.78125 56.765625 73.332031 57.226562 74.078125 59.054688 L 74.292969 59.574219 L 75.609375 59.574219 C 76.8125 59.574219 76.925781 59.554688 76.871094 59.367188 C 76.835938 59.257812 76.773438 59.007812 76.726562 58.8125 C 76.171875 56.394531 73.542969 54.789062 70.679688 55.121094 M 146.4375 57.410156 C 146.441406 58.730469 146.425781 59.808594 146.402344 59.808594 C 146.378906 59.808594 146.203125 59.628906 146.011719 59.40625 C 143.9375 57.035156 140.074219 58.730469 139.570312 62.234375 C 138.988281 66.285156 143.039062 69.167969 145.835938 66.695312 L 146.371094 66.226562 L 146.371094 67.300781 L 148.816406 67.300781 L 148.816406 55.007812 L 146.429688 55.007812 L 146.4375 57.410156 M 26.226562 57.972656 C 26.21875 58.113281 26.710938 59.238281 26.761719 59.1875 C 26.785156 59.160156 26.675781 58.859375 26.519531 58.507812 C 26.363281 58.160156 26.230469 57.921875 26.226562 57.972656 M 22.847656 58.179688 C 22.839844 58.398438 23.082031 59.136719 23.140625 59.078125 C 23.164062 59.054688 23.109375 58.804688 23.019531 58.515625 C 22.929688 58.230469 22.851562 58.078125 22.847656 58.179688 M 153.605469 58.46875 C 150.84375 59.070312 149.355469 62.136719 150.441406 64.984375 C 151.738281 68.386719 157.847656 68.390625 158.890625 64.988281 C 158.96875 64.726562 158.960938 64.722656 157.847656 64.722656 L 156.726562 64.722656 L 156.355469 65.121094 C 155.09375 66.460938 152.746094 65.675781 152.527344 63.84375 L 152.488281 63.496094 L 159.105469 63.433594 L 159.042969 62.527344 C 158.832031 59.546875 156.535156 57.828125 153.605469 58.46875 M 81.050781 58.5625 C 77.152344 59.851562 76.800781 65.417969 80.507812 67.164062 C 81.527344 67.644531 83.652344 67.628906 84.664062 67.128906 C 88.011719 65.484375 87.992188 60.34375 84.632812 58.78125 C 83.832031 58.410156 81.875 58.289062 81.050781 58.5625 M 92.644531 58.511719 C 92.195312 58.648438 91.664062 58.949219 91.261719 59.289062 L 90.898438 59.59375 L 90.898438 58.519531 L 88.566406 58.519531 L 88.566406 67.355469 L 89.726562 67.320312 L 90.882812 67.285156 L 90.917969 64.433594 C 90.964844 61.011719 91.203125 60.46875 92.644531 60.488281 C 94.023438 60.507812 94.199219 60.953125 94.253906 64.546875 L 94.300781 67.355469 L 96.609375 67.355469 L 96.609375 64.722656 C 96.609375 61.285156 96.824219 60.671875 98.097656 60.457031 C 99.5625 60.207031 99.804688 60.75 99.851562 64.402344 L 99.886719 67.300781 L 102.320312 67.300781 L 102.320312 64.339844 C 102.320312 61.074219 102.21875 60.359375 101.644531 59.515625 C 100.683594 58.101562 98.09375 58.019531 96.699219 59.351562 L 96.21875 59.8125 L 95.867188 59.382812 C 95.207031 58.578125 93.738281 58.179688 92.644531 58.511719 M 107.914062 58.648438 C 107.625 58.777344 107.21875 59.050781 107.011719 59.253906 L 106.628906 59.621094 L 106.628906 58.519531 L 104.183594 58.519531 L 104.183594 67.300781 L 106.617188 67.300781 L 106.652344 64.519531 C 106.699219 61.046875 106.925781 60.511719 108.34375 60.511719 C 109.730469 60.511719 109.894531 60.9375 109.894531 64.53125 C 109.894531 66.03125 109.914062 67.28125 109.941406 67.308594 C 109.96875 67.335938 110.519531 67.339844 111.164062 67.320312 L 112.339844 67.28125 L 112.339844 64.769531 C 112.339844 61.425781 112.5 60.898438 113.613281 60.523438 C 115.191406 59.996094 115.601562 60.851562 115.605469 64.664062 L 115.605469 67.355469 L 116.777344 67.335938 L 117.945312 67.316406 L 117.941406 64.175781 C 117.9375 60.429688 117.867188 60.058594 117.019531 59.207031 C 115.882812 58.066406 113.886719 58.117188 112.546875 59.328125 L 111.960938 59.855469 L 111.601562 59.40625 C 110.84375 58.453125 109.117188 58.097656 107.914062 58.648438 M 122.230469 58.582031 C 121.050781 58.957031 120.039062 59.964844 119.84375 60.949219 L 119.769531 61.328125 L 120.945312 61.328125 C 122.097656 61.328125 122.121094 61.324219 122.269531 61.019531 C 122.972656 59.578125 125.167969 60.097656 125.296875 61.738281 L 125.335938 62.207031 L 123.410156 62.265625 C 120.234375 62.367188 118.863281 63.582031 119.449219 65.777344 C 119.96875 67.710938 123.367188 68.222656 125.074219 66.621094 L 125.394531 66.320312 L 125.394531 67.300781 L 127.746094 67.300781 L 127.695312 64.226562 C 127.625 60.304688 127.398438 59.589844 125.976562 58.816406 C 125.195312 58.390625 123.210938 58.265625 122.230469 58.582031 M 133.667969 58.511719 C 133.175781 58.664062 132.578125 59 132.238281 59.316406 L 131.917969 59.617188 L 131.917969 58.519531 L 129.472656 58.519531 L 129.472656 62.890625 C 129.472656 65.292969 129.492188 67.28125 129.519531 67.308594 C 129.546875 67.335938 130.09375 67.339844 130.734375 67.320312 L 131.898438 67.285156 L 131.9375 64.628906 C 131.976562 62.164062 131.996094 61.9375 132.238281 61.445312 C 132.691406 60.519531 133.710938 60.167969 134.628906 60.613281 C 135.515625 61.042969 135.578125 61.289062 135.648438 64.527344 L 135.707031 67.316406 L 138.113281 67.355469 L 138.074219 63.964844 L 138.035156 60.570312 L 137.726562 59.984375 C 137.027344 58.652344 135.28125 58.019531 133.667969 58.511719 M 160.5 62.921875 L 160.527344 67.324219 L 161.375 67.316406 C 161.839844 67.3125 162.375 67.308594 162.566406 67.304688 L 162.917969 67.300781 L 162.921875 64.988281 C 162.929688 61.609375 163.242188 61.019531 165.109375 60.863281 L 165.84375 60.800781 L 165.890625 58.519531 L 165.363281 58.519531 C 164.5 58.523438 163.980469 58.730469 163.429688 59.300781 C 162.859375 59.890625 162.742188 59.828125 162.820312 58.988281 L 162.867188 58.519531 L 160.46875 58.519531 L 160.5 62.921875 M 54.96875 59.65625 C 54.859375 59.953125 54.789062 60.214844 54.8125 60.238281 C 54.835938 60.261719 54.945312 60.039062 55.058594 59.746094 C 55.171875 59.449219 55.242188 59.1875 55.214844 59.160156 C 55.191406 59.136719 55.078125 59.359375 54.96875 59.65625 M 51.144531 60.527344 C 50.84375 61.03125 50.648438 61.417969 50.703125 61.382812 C 50.839844 61.296875 51.785156 59.695312 51.730469 59.644531 C 51.703125 59.621094 51.441406 60.019531 51.144531 60.527344 M 155.21875 60.15625 C 155.855469 60.339844 156.417969 60.953125 156.628906 61.695312 L 156.726562 62.03125 L 152.566406 62.03125 L 152.683594 61.59375 C 153.007812 60.421875 154.058594 59.824219 155.21875 60.15625 M 23.546875 60.21875 C 23.546875 60.28125 23.625 60.464844 23.714844 60.628906 C 23.804688 60.789062 23.882812 60.867188 23.882812 60.800781 C 23.882812 60.738281 23.804688 60.554688 23.714844 60.394531 C 23.625 60.230469 23.546875 60.152344 23.546875 60.21875 M 83.445312 60.539062 C 85.859375 61.765625 84.625 66.242188 82.0625 65.558594 C 80.925781 65.253906 80.476562 64.519531 80.472656 62.96875 C 80.464844 60.804688 81.804688 59.707031 83.445312 60.539062 M 145.292969 60.707031 C 147.242188 62.28125 146.464844 65.699219 144.15625 65.699219 C 142.710938 65.699219 142.066406 64.875 142.066406 63.027344 C 142.066406 60.707031 143.773438 59.480469 145.292969 60.707031 M 24.296875 61.796875 C 24.398438 61.992188 24.503906 62.148438 24.535156 62.148438 C 24.570312 62.148438 24.511719 61.992188 24.414062 61.796875 C 24.316406 61.605469 24.207031 61.445312 24.175781 61.445312 C 24.144531 61.445312 24.199219 61.605469 24.296875 61.796875 M 54.015625 61.796875 C 53.914062 61.992188 53.859375 62.148438 53.890625 62.148438 C 53.925781 62.148438 54.03125 61.992188 54.132812 61.796875 C 54.230469 61.605469 54.285156 61.445312 54.253906 61.445312 C 54.222656 61.445312 54.113281 61.605469 54.015625 61.796875 M 28.304688 61.894531 C 28.433594 62.078125 28.632812 62.300781 28.746094 62.394531 C 28.859375 62.484375 28.773438 62.335938 28.554688 62.0625 C 28.113281 61.5 27.945312 61.390625 28.304688 61.894531 M 50.015625 62.148438 C 49.742188 62.46875 49.546875 62.734375 49.585938 62.734375 C 49.660156 62.734375 50.152344 62.179688 50.4375 61.777344 C 50.714844 61.390625 50.527344 61.554688 50.015625 62.148438 M 25.175781 63.179688 C 25.453125 63.585938 25.734375 63.953125 25.804688 63.992188 C 25.941406 64.078125 25.109375 62.890625 24.84375 62.617188 C 24.75 62.519531 24.898438 62.773438 25.175781 63.179688 M 29.425781 63.203125 C 29.675781 63.460938 29.90625 63.671875 29.9375 63.671875 C 29.972656 63.671875 29.792969 63.460938 29.542969 63.203125 C 29.292969 62.945312 29.0625 62.734375 29.027344 62.734375 C 28.996094 62.734375 29.175781 62.945312 29.425781 63.203125 M 48.828125 63.457031 C 48.476562 63.785156 47.875 64.285156 47.488281 64.574219 C 46.664062 65.191406 46.527344 65.324219 47.054688 65.003906 C 47.703125 64.601562 49.738281 62.832031 49.519531 62.855469 C 49.492188 62.859375 49.179688 63.128906 48.828125 63.457031 M 30.066406 63.730469 C 30.066406 63.796875 30.46875 64.160156 31.078125 64.644531 C 31.589844 65.046875 31.347656 64.769531 30.707031 64.210938 C 30.355469 63.90625 30.066406 63.691406 30.066406 63.730469 M 52.261719 64.34375 C 51.953125 64.714844 51.644531 65.070312 51.574219 65.140625 C 51.507812 65.207031 51.265625 65.472656 51.042969 65.730469 C 50.820312 65.992188 50.984375 65.84375 51.414062 65.402344 C 52.1875 64.605469 52.976562 63.671875 52.871094 63.671875 C 52.84375 63.671875 52.566406 63.972656 52.261719 64.34375 M 125.277344 64.171875 C 125.277344 65.4375 122.960938 66.386719 122.066406 65.488281 C 121.121094 64.542969 122.042969 63.6875 124.023438 63.679688 L 125.277344 63.671875 L 125.277344 64.171875 M 26.554688 64.941406 C 26.945312 65.382812 27.355469 65.816406 27.46875 65.90625 C 27.582031 65.996094 27.289062 65.636719 26.816406 65.105469 C 26.339844 64.574219 25.929688 64.136719 25.902344 64.136719 C 25.871094 64.136719 26.167969 64.5 26.554688 64.941406 M 31.988281 65.253906 C 32.253906 65.46875 33.453125 66.097656 33.269531 65.925781 C 33.207031 65.863281 32.839844 65.644531 32.457031 65.441406 C 32.070312 65.234375 31.859375 65.148438 31.988281 65.253906 M 45.855469 65.609375 C 45.472656 65.828125 45.210938 66.007812 45.273438 66.007812 C 45.414062 66.007812 46.613281 65.328125 46.613281 65.25 C 46.613281 65.171875 46.640625 65.160156 45.855469 65.609375 M 27.851562 66.164062 C 27.851562 66.183594 28.023438 66.355469 28.230469 66.546875 L 28.609375 66.890625 L 28.265625 66.507812 C 27.949219 66.152344 27.851562 66.074219 27.851562 66.164062 M 49.742188 66.808594 C 48.867188 67.535156 48.765625 67.660156 49.433594 67.1875 C 49.921875 66.84375 50.582031 66.234375 50.453125 66.25 C 50.425781 66.253906 50.105469 66.503906 49.742188 66.808594 M 41.894531 67.066406 C 41.578125 67.144531 41.574219 67.15625 41.835938 67.160156 C 41.996094 67.164062 42.234375 67.121094 42.359375 67.066406 C 42.648438 66.941406 42.378906 66.941406 41.894531 67.066406 M 29.394531 67.441406 C 29.742188 67.738281 30.417969 68.160156 30.417969 68.082031 C 30.417969 68.054688 30.113281 67.839844 29.746094 67.601562 C 29.378906 67.363281 29.21875 67.292969 29.394531 67.441406 M 40.875 67.265625 C 41.019531 67.292969 41.230469 67.292969 41.34375 67.261719 C 41.453125 67.234375 41.335938 67.210938 41.078125 67.210938 C 40.824219 67.210938 40.730469 67.238281 40.875 67.265625 M 38.777344 67.382812 C 39.050781 67.410156 39.496094 67.410156 39.769531 67.382812 C 40.039062 67.359375 39.816406 67.339844 39.273438 67.339844 C 38.726562 67.339844 38.503906 67.359375 38.777344 67.382812 M 48.332031 67.835938 C 48.09375 67.992188 47.894531 68.144531 47.894531 68.175781 C 47.894531 68.25 48.703125 67.761719 48.777344 67.636719 C 48.867188 67.492188 48.828125 67.507812 48.332031 67.835938 M 30.53125 68.171875 C 30.53125 68.203125 30.742188 68.335938 31 68.46875 C 31.253906 68.601562 31.464844 68.683594 31.464844 68.648438 C 31.464844 68.617188 31.253906 68.484375 31 68.351562 C 30.742188 68.21875 30.53125 68.140625 30.53125 68.171875 M 46.496094 68.878906 C 46.210938 69.035156 46.027344 69.160156 46.089844 69.160156 C 46.152344 69.160156 46.441406 69.035156 46.730469 68.878906 C 47.019531 68.722656 47.203125 68.597656 47.140625 68.597656 C 47.074219 68.597656 46.785156 68.722656 46.496094 68.878906 M 31.816406 68.878906 C 31.976562 68.972656 32.160156 69.046875 32.222656 69.046875 C 32.285156 69.046875 32.207031 68.972656 32.046875 68.878906 C 31.886719 68.785156 31.703125 68.710938 31.640625 68.710938 C 31.574219 68.710938 31.65625 68.785156 31.816406 68.878906 M 44.574219 69.640625 C 44.429688 69.703125 44.40625 69.738281 44.515625 69.738281 C 44.613281 69.738281 44.796875 69.695312 44.925781 69.640625 C 45.070312 69.578125 45.09375 69.539062 44.984375 69.539062 C 44.886719 69.539062 44.703125 69.585938 44.574219 69.640625 M 33.925781 69.6875 C 34.03125 69.800781 35.5625 70.226562 35.835938 70.21875 C 35.960938 70.214844 35.675781 70.109375 35.195312 69.984375 C 34.714844 69.855469 34.214844 69.722656 34.085938 69.683594 C 33.957031 69.644531 33.886719 69.644531 33.925781 69.6875 M 38.019531 70.542969 C 38.261719 70.570312 38.652344 70.570312 38.894531 70.542969 C 39.132812 70.519531 38.9375 70.496094 38.457031 70.496094 C 37.976562 70.496094 37.78125 70.519531 38.019531 70.542969 M 39.710938 70.542969 C 39.917969 70.570312 40.257812 70.570312 40.46875 70.542969 C 40.675781 70.515625 40.503906 70.496094 40.089844 70.496094 C 39.671875 70.496094 39.5 70.515625 39.710938 70.542969 M 66.777344 74.460938 C 65.4375 75.152344 65.125 77.253906 66.175781 78.460938 C 67.101562 79.519531 69.160156 79.292969 69.777344 78.066406 L 70.042969 77.539062 L 69.605469 77.503906 C 69.320312 77.476562 69.152344 77.515625 69.117188 77.617188 C 68.59375 79.199219 66.425781 78.445312 66.425781 76.683594 C 66.425781 75.023438 68.347656 74.183594 68.976562 75.570312 C 69.121094 75.882812 69.921875 75.980469 69.921875 75.683594 C 69.921875 74.589844 67.980469 73.835938 66.777344 74.460938 M 72.421875 74.425781 C 71.550781 74.824219 71.089844 75.636719 71.089844 76.789062 C 71.085938 79.296875 74.5 80.09375 75.453125 77.804688 C 76.335938 75.683594 74.398438 73.523438 72.421875 74.425781 M 112.96875 74.429688 C 112.070312 74.835938 111.550781 75.914062 111.695312 77.066406 C 112.066406 80.070312 116.171875 79.777344 116.183594 76.746094 C 116.191406 74.835938 114.597656 73.683594 112.96875 74.429688 M 130.949219 74.375 C 128.921875 75.101562 129.082031 78.675781 131.160156 79.070312 C 132.429688 79.308594 133.902344 78.539062 133.902344 77.640625 C 133.902344 77.332031 133.09375 77.441406 132.96875 77.769531 C 132.515625 78.972656 130.546875 78.46875 130.34375 77.101562 C 130.078125 75.320312 131.929688 74.078125 132.792969 75.457031 C 133.097656 75.945312 133.980469 76.050781 133.835938 75.578125 C 133.496094 74.480469 132.183594 73.929688 130.949219 74.375 M 156.855469 74.421875 C 155.5625 75.121094 156.0625 76.601562 157.710938 76.945312 C 158.644531 77.140625 158.839844 77.277344 158.839844 77.726562 C 158.839844 78.464844 157.550781 78.671875 157.027344 78.015625 C 156.738281 77.648438 156.160156 77.59375 156.160156 77.933594 C 156.160156 78.542969 157.015625 79.121094 157.914062 79.121094 C 159.046875 79.121094 159.65625 78.585938 159.65625 77.597656 C 159.65625 76.808594 159.347656 76.605469 157.59375 76.246094 C 157.027344 76.128906 156.777344 75.472656 157.15625 75.089844 C 157.453125 74.792969 158.21875 74.851562 158.539062 75.199219 C 158.792969 75.472656 159.539062 75.628906 159.539062 75.402344 C 159.535156 74.503906 157.847656 73.886719 156.855469 74.421875 M 77.03125 76.71875 L 77.03125 79.121094 L 77.847656 79.121094 L 77.851562 77.511719 L 77.859375 75.902344 L 78.460938 77.101562 C 79.316406 78.804688 79.527344 78.800781 80.351562 77.078125 C 81.082031 75.542969 81.058594 75.527344 81.011719 77.480469 L 80.976562 79.121094 L 81.808594 79.121094 L 81.808594 74.320312 L 80.921875 74.320312 L 79.398438 77.445312 L 78.621094 75.882812 C 77.847656 74.324219 77.847656 74.320312 77.4375 74.320312 L 77.03125 74.320312 L 77.03125 76.71875 M 83.441406 76.71875 L 83.441406 79.121094 L 84.269531 79.121094 L 84.234375 77.539062 C 84.191406 75.65625 84.171875 75.667969 84.863281 77.132812 C 85.652344 78.808594 85.867188 78.800781 86.753906 77.042969 L 87.390625 75.785156 L 87.394531 77.453125 L 87.402344 79.121094 L 88.101562 79.121094 L 88.101562 74.320312 L 87.71875 74.320312 C 87.34375 74.320312 87.320312 74.355469 86.585938 75.84375 C 86.171875 76.679688 85.808594 77.359375 85.773438 77.355469 C 85.742188 77.351562 85.386719 76.667969 84.988281 75.835938 L 84.261719 74.320312 L 83.441406 74.320312 L 83.441406 76.71875 M 90.207031 76.570312 C 89.734375 77.8125 89.324219 78.898438 89.292969 78.980469 C 89.25 79.097656 89.351562 79.125 89.6875 79.097656 C 90.101562 79.0625 90.148438 79.023438 90.328125 78.535156 L 90.519531 78.007812 L 91.441406 77.972656 L 92.363281 77.941406 L 92.613281 78.53125 C 92.832031 79.058594 92.898438 79.121094 93.21875 79.121094 C 93.675781 79.121094 93.714844 79.324219 92.730469 76.660156 L 91.882812 74.378906 L 91.0625 74.308594 L 90.207031 76.570312 M 94.769531 76.691406 L 94.800781 79.0625 L 95.179688 79.097656 L 95.558594 79.136719 L 95.5625 77.402344 C 95.566406 76.007812 95.59375 75.707031 95.710938 75.863281 C 95.789062 75.972656 96.292969 76.75 96.835938 77.589844 C 97.769531 79.042969 97.835938 79.121094 98.203125 79.121094 L 98.589844 79.121094 L 98.589844 74.320312 L 97.761719 74.320312 L 97.796875 75.960938 C 97.816406 76.859375 97.804688 77.597656 97.773438 77.59375 C 97.742188 77.59375 97.230469 76.855469 96.636719 75.957031 C 95.589844 74.371094 95.546875 74.320312 95.148438 74.320312 L 94.738281 74.320312 L 94.769531 76.691406 M 100.222656 76.699219 L 100.222656 79.078125 L 101.378906 79.054688 C 103.347656 79.015625 104.125 78.34375 104.125 76.671875 C 104.125 74.964844 103.375 74.320312 101.390625 74.320312 L 100.222656 74.320312 L 100.222656 76.699219 M 107.582031 75.515625 C 107.976562 76.175781 108.371094 76.808594 108.464844 76.914062 C 108.582031 77.050781 108.621094 77.382812 108.601562 78.085938 L 108.574219 79.0625 L 109.3125 79.0625 L 109.3125 77.183594 L 110.101562 75.898438 C 110.539062 75.191406 110.933594 74.546875 110.984375 74.46875 C 111.050781 74.359375 110.949219 74.320312 110.609375 74.320312 C 110.144531 74.320312 110.140625 74.328125 109.582031 75.316406 C 108.90625 76.511719 109.019531 76.511719 108.367188 75.34375 C 107.839844 74.398438 107.820312 74.378906 107.347656 74.34375 L 106.863281 74.308594 L 107.582031 75.515625 M 117.585938 76.046875 C 117.59375 78.589844 117.949219 79.179688 119.460938 79.15625 C 120.976562 79.128906 121.308594 78.574219 121.3125 76.046875 L 121.316406 74.320312 L 120.5 74.320312 L 120.5 76.070312 C 120.5 78.171875 120.359375 78.484375 119.4375 78.460938 C 118.523438 78.433594 118.402344 78.152344 118.402344 76.070312 L 118.402344 74.320312 L 117.585938 74.320312 L 117.585938 76.046875 M 122.828125 76.71875 L 122.828125 79.121094 L 123.644531 79.121094 L 123.644531 77.246094 L 124.097656 77.246094 C 124.546875 77.246094 124.558594 77.257812 125.027344 78.164062 C 125.480469 79.035156 125.523438 79.082031 125.914062 79.097656 C 126.417969 79.117188 126.425781 79.207031 125.816406 78.117188 L 125.304688 77.210938 L 125.757812 76.777344 C 126.296875 76.265625 126.375 75.589844 125.976562 74.933594 C 125.664062 74.417969 125.351562 74.320312 123.988281 74.320312 L 122.828125 74.320312 L 122.828125 76.71875 M 136.214844 74.644531 C 135.660156 76.0625 134.597656 78.933594 134.597656 79.015625 C 134.597656 79.464844 135.382812 79.078125 135.578125 78.535156 L 135.789062 77.949219 L 137.707031 77.949219 L 137.875 78.503906 C 138.039062 79.03125 138.074219 79.0625 138.496094 79.097656 C 138.886719 79.132812 138.933594 79.109375 138.859375 78.921875 C 138.8125 78.804688 138.40625 77.722656 137.957031 76.515625 L 137.136719 74.320312 L 136.738281 74.320312 C 136.414062 74.320312 136.320312 74.378906 136.214844 74.644531 M 140.078125 76.71875 L 140.078125 79.121094 L 140.886719 79.121094 L 140.949219 76.019531 L 141.496094 77.160156 C 142.285156 78.808594 142.503906 78.796875 143.390625 77.042969 L 144.027344 75.785156 L 144.035156 77.453125 L 144.039062 79.121094 L 144.738281 79.121094 L 144.738281 74.320312 L 143.910156 74.320312 L 143.195312 75.84375 C 142.804688 76.679688 142.453125 77.363281 142.417969 77.363281 C 142.378906 77.359375 142.023438 76.675781 141.628906 75.839844 L 140.910156 74.320312 L 140.078125 74.320312 L 140.078125 76.71875 M 146.371094 76.71875 L 146.371094 79.121094 L 147.183594 79.121094 L 147.183594 77.246094 L 147.949219 77.246094 C 149.476562 77.246094 150.238281 76.140625 149.484375 75.011719 C 149.09375 74.429688 148.789062 74.324219 147.503906 74.324219 L 146.371094 74.320312 L 146.371094 76.71875 M 151.03125 76.152344 C 151.03125 78.605469 151.355469 79.121094 152.886719 79.121094 C 154.453125 79.121094 154.761719 78.632812 154.761719 76.152344 L 154.761719 74.320312 L 153.945312 74.320312 L 153.941406 76.046875 C 153.9375 77.847656 153.898438 78.015625 153.398438 78.28125 C 152.96875 78.511719 152.550781 78.441406 152.1875 78.074219 L 151.847656 77.734375 L 151.847656 74.320312 L 151.03125 74.320312 L 151.03125 76.152344 M 74.1875 75.203125 C 74.75 75.558594 74.984375 76.730469 74.65625 77.523438 C 74.128906 78.792969 72.398438 78.683594 72.003906 77.355469 C 71.53125 75.769531 72.921875 74.398438 74.1875 75.203125 M 102.9375 75.476562 C 104.023438 76.5625 103.144531 78.40625 101.539062 78.414062 L 101.050781 78.417969 L 100.980469 75.035156 L 101.386719 75 C 102.050781 74.945312 102.566406 75.101562 102.9375 75.476562 M 114.761719 75.210938 C 115.644531 75.789062 115.554688 77.742188 114.625 78.246094 C 113.78125 78.699219 112.839844 78.261719 112.566406 77.28125 C 112.128906 75.703125 113.519531 74.390625 114.761719 75.210938 M 125.191406 75.230469 C 125.800781 75.773438 125.292969 76.546875 124.328125 76.546875 L 123.644531 76.546875 L 123.644531 75.804688 C 123.644531 75.394531 123.667969 75.039062 123.695312 75.011719 C 123.8125 74.894531 125.003906 75.066406 125.191406 75.230469 M 148.71875 75.21875 C 149.332031 75.773438 148.773438 76.660156 147.804688 76.660156 L 147.183594 76.660156 L 147.183594 75.023438 L 147.847656 75.023438 C 148.296875 75.023438 148.574219 75.085938 148.71875 75.21875 M 137.394531 77.210938 C 137.394531 77.230469 137.089844 77.246094 136.710938 77.246094 L 136.027344 77.246094 L 136.382812 76.308594 L 136.742188 75.367188 L 137.066406 76.273438 C 137.25 76.769531 137.394531 77.191406 137.394531 77.210938 M 91.800781 76.285156 C 92.140625 77.308594 92.164062 77.246094 91.425781 77.246094 L 90.792969 77.246094 L 91.097656 76.371094 C 91.472656 75.300781 91.476562 75.300781 91.800781 76.285156 "/>
<path style=" stroke:none;fill-rule:evenodd;fill:rgb(16.862746%,61.176473%,87.450981%);fill-opacity:1;" d="M 38.855469 36.53125 C 38.800781 36.621094 38.492188 36.644531 37.914062 36.601562 C 37.398438 36.5625 37.082031 36.578125 37.121094 36.644531 C 37.160156 36.707031 37.011719 36.722656 36.761719 36.683594 C 36.445312 36.632812 36.355469 36.652344 36.421875 36.757812 C 36.484375 36.859375 36.410156 36.886719 36.144531 36.84375 C 35.941406 36.816406 35.777344 36.839844 35.777344 36.902344 C 35.777344 36.960938 35.640625 36.976562 35.476562 36.933594 C 35.300781 36.890625 35.203125 36.902344 35.242188 36.96875 C 35.277344 37.027344 35.203125 37.101562 35.074219 37.136719 C 34.949219 37.167969 34.875 37.148438 34.910156 37.089844 C 34.945312 37.03125 34.917969 36.984375 34.851562 36.984375 C 34.785156 36.984375 34.726562 37.042969 34.726562 37.113281 C 34.726562 37.1875 34.648438 37.214844 34.554688 37.175781 C 34.457031 37.140625 34.378906 37.164062 34.378906 37.230469 C 34.378906 37.300781 34.273438 37.320312 34.128906 37.273438 C 33.953125 37.214844 33.90625 37.234375 33.96875 37.335938 C 34.035156 37.441406 33.984375 37.457031 33.796875 37.394531 C 33.605469 37.332031 33.558594 37.351562 33.621094 37.453125 C 33.683594 37.554688 33.636719 37.574219 33.445312 37.511719 C 33.25 37.449219 33.207031 37.464844 33.277344 37.578125 C 33.339844 37.683594 33.3125 37.707031 33.171875 37.652344 C 33.066406 37.609375 32.980469 37.621094 32.980469 37.679688 C 32.980469 37.734375 32.898438 37.8125 32.800781 37.847656 C 32.695312 37.886719 32.648438 37.871094 32.6875 37.804688 C 32.726562 37.738281 32.679688 37.71875 32.578125 37.757812 C 32.480469 37.796875 32.433594 37.886719 32.476562 37.953125 C 32.523438 38.03125 32.480469 38.050781 32.359375 38.003906 C 32.25 37.960938 32.164062 37.976562 32.164062 38.035156 C 32.164062 38.140625 31.707031 38.335938 31.550781 38.296875 C 31.503906 38.28125 31.464844 38.328125 31.464844 38.394531 C 31.464844 38.464844 31.414062 38.488281 31.347656 38.449219 C 31.285156 38.40625 31.230469 38.433594 31.230469 38.507812 C 31.230469 38.578125 31.179688 38.605469 31.113281 38.566406 C 31.050781 38.527344 31 38.550781 31 38.625 C 31 38.695312 30.945312 38.722656 30.882812 38.683594 C 30.816406 38.640625 30.765625 38.664062 30.765625 38.730469 C 30.765625 38.894531 30.121094 39.222656 30.003906 39.117188 C 29.953125 39.070312 29.949219 39.097656 29.996094 39.179688 C 30.074219 39.3125 29.933594 39.382812 29.679688 39.335938 C 29.625 39.328125 29.617188 39.375 29.65625 39.441406 C 29.722656 39.550781 29.566406 39.613281 29.328125 39.570312 C 29.277344 39.5625 29.261719 39.601562 29.300781 39.660156 C 29.367188 39.769531 29.042969 39.964844 28.863281 39.925781 C 28.808594 39.914062 28.789062 39.945312 28.820312 39.996094 C 28.847656 40.046875 28.707031 40.21875 28.507812 40.378906 C 28.21875 40.605469 28.175781 40.617188 28.304688 40.433594 C 28.390625 40.308594 28.25 40.441406 27.988281 40.730469 C 27.722656 41.019531 27.507812 41.207031 27.507812 41.144531 C 27.503906 41.085938 27.320312 41.210938 27.097656 41.429688 C 26.878906 41.644531 26.71875 41.859375 26.75 41.910156 C 26.78125 41.960938 26.675781 42.101562 26.515625 42.226562 C 26.359375 42.351562 26.253906 42.480469 26.285156 42.511719 C 26.316406 42.542969 26.253906 42.644531 26.144531 42.734375 C 25.972656 42.871094 25.957031 42.871094 26.042969 42.730469 C 26.109375 42.617188 26.097656 42.59375 26.003906 42.652344 C 25.929688 42.699219 25.894531 42.78125 25.929688 42.835938 C 25.960938 42.890625 25.8125 43.125 25.597656 43.355469 C 25.378906 43.585938 25.230469 43.773438 25.269531 43.773438 C 25.304688 43.773438 25.230469 43.855469 25.105469 43.957031 C 24.980469 44.058594 24.949219 44.105469 25.035156 44.0625 C 25.160156 43.996094 25.164062 44.027344 25.039062 44.222656 C 24.957031 44.351562 24.847656 44.433594 24.796875 44.402344 C 24.742188 44.367188 24.707031 44.382812 24.714844 44.4375 C 24.757812 44.6875 24.695312 44.832031 24.570312 44.757812 C 24.480469 44.703125 24.46875 44.726562 24.53125 44.828125 C 24.585938 44.917969 24.554688 45.03125 24.449219 45.109375 C 24.273438 45.238281 24.238281 45.308594 24.238281 45.535156 C 24.238281 45.605469 24.1875 45.628906 24.125 45.589844 C 24.058594 45.546875 24.039062 45.59375 24.078125 45.699219 C 24.117188 45.800781 24.070312 45.90625 23.96875 45.949219 C 23.859375 45.988281 23.816406 46.09375 23.859375 46.203125 C 23.90625 46.324219 23.882812 46.359375 23.792969 46.304688 C 23.710938 46.25 23.683594 46.28125 23.722656 46.386719 C 23.757812 46.476562 23.707031 46.632812 23.609375 46.730469 C 23.515625 46.824219 23.46875 46.9375 23.507812 46.976562 C 23.546875 47.019531 23.515625 47.050781 23.4375 47.050781 C 23.359375 47.050781 23.324219 47.101562 23.367188 47.167969 C 23.40625 47.230469 23.386719 47.285156 23.328125 47.285156 C 23.265625 47.285156 23.191406 47.390625 23.15625 47.519531 C 23.125 47.648438 23.136719 47.726562 23.191406 47.695312 C 23.242188 47.660156 23.257812 47.738281 23.226562 47.867188 C 23.191406 47.996094 23.121094 48.074219 23.070312 48.042969 C 23.019531 48.011719 23.007812 48.101562 23.046875 48.238281 C 23.09375 48.429688 23.070312 48.46875 22.957031 48.394531 C 22.84375 48.328125 22.820312 48.351562 22.875 48.488281 C 22.914062 48.589844 22.902344 48.691406 22.851562 48.710938 C 22.800781 48.730469 22.726562 48.90625 22.679688 49.097656 C 22.617188 49.375 22.628906 49.410156 22.730469 49.273438 C 22.84375 49.125 22.851562 49.132812 22.792969 49.3125 C 22.753906 49.429688 22.722656 49.578125 22.722656 49.640625 C 22.722656 49.703125 22.671875 49.722656 22.609375 49.683594 C 22.539062 49.640625 22.523438 49.753906 22.570312 49.988281 C 22.625 50.269531 22.609375 50.339844 22.503906 50.277344 C 22.394531 50.210938 22.378906 50.296875 22.441406 50.625 C 22.5 50.945312 22.488281 51.039062 22.386719 50.980469 C 22.289062 50.917969 22.273438 51.023438 22.328125 51.371094 C 22.371094 51.632812 22.359375 51.847656 22.300781 51.847656 C 22.246094 51.847656 22.199219 52.558594 22.195312 53.429688 C 22.191406 54.296875 22.234375 55.007812 22.289062 55.007812 C 22.34375 55.007812 22.359375 55.246094 22.324219 55.535156 C 22.285156 55.867188 22.308594 56.0625 22.386719 56.0625 C 22.464844 56.0625 22.480469 56.195312 22.433594 56.414062 C 22.382812 56.648438 22.402344 56.765625 22.496094 56.765625 C 22.585938 56.765625 22.605469 56.871094 22.558594 57.066406 C 22.507812 57.269531 22.523438 57.34375 22.609375 57.292969 C 22.691406 57.238281 22.707031 57.316406 22.652344 57.535156 C 22.59375 57.773438 22.609375 57.832031 22.71875 57.761719 C 22.828125 57.695312 22.84375 57.738281 22.78125 57.933594 C 22.722656 58.128906 22.738281 58.175781 22.847656 58.109375 C 22.953125 58.042969 22.976562 58.097656 22.933594 58.324219 C 22.898438 58.515625 22.917969 58.601562 22.992188 58.558594 C 23.066406 58.511719 23.085938 58.582031 23.046875 58.738281 C 23.003906 58.890625 23.023438 58.960938 23.097656 58.914062 C 23.171875 58.871094 23.183594 58.9375 23.132812 59.105469 C 23.070312 59.304688 23.085938 59.347656 23.199219 59.277344 C 23.304688 59.210938 23.324219 59.242188 23.273438 59.378906 C 23.230469 59.484375 23.253906 59.574219 23.324219 59.574219 C 23.390625 59.574219 23.417969 59.652344 23.382812 59.75 C 23.34375 59.847656 23.367188 59.925781 23.433594 59.925781 C 23.5 59.925781 23.523438 59.976562 23.480469 60.042969 C 23.441406 60.105469 23.472656 60.160156 23.546875 60.160156 C 23.621094 60.160156 23.652344 60.242188 23.613281 60.339844 C 23.574219 60.441406 23.589844 60.492188 23.644531 60.457031 C 23.769531 60.382812 23.917969 60.722656 23.824219 60.871094 C 23.789062 60.929688 23.816406 60.976562 23.890625 60.976562 C 23.960938 60.976562 23.988281 61.03125 23.949219 61.097656 C 23.910156 61.160156 23.933594 61.210938 24.007812 61.210938 C 24.078125 61.210938 24.109375 61.261719 24.074219 61.316406 C 24.035156 61.375 24.089844 61.453125 24.195312 61.492188 C 24.304688 61.535156 24.351562 61.640625 24.3125 61.746094 C 24.273438 61.851562 24.292969 61.894531 24.359375 61.855469 C 24.460938 61.789062 24.523438 61.945312 24.484375 62.179688 C 24.480469 62.226562 24.535156 62.265625 24.609375 62.265625 C 24.683594 62.265625 24.714844 62.296875 24.679688 62.332031 C 24.644531 62.367188 24.742188 62.527344 24.898438 62.683594 C 25.054688 62.839844 25.148438 63.03125 25.101562 63.105469 C 25.050781 63.1875 25.070312 63.207031 25.152344 63.15625 C 25.226562 63.109375 25.296875 63.128906 25.304688 63.195312 C 25.3125 63.261719 25.324219 63.367188 25.332031 63.425781 C 25.339844 63.484375 25.394531 63.578125 25.453125 63.632812 C 25.515625 63.6875 25.523438 63.667969 25.476562 63.582031 C 25.316406 63.304688 25.496094 63.4375 25.695312 63.742188 C 25.808594 63.914062 25.832031 64.011719 25.746094 63.957031 C 25.667969 63.910156 25.859375 64.125 26.179688 64.441406 C 26.496094 64.757812 27.070312 65.359375 27.449219 65.78125 C 27.832031 66.203125 28.089844 66.460938 28.027344 66.359375 C 27.964844 66.253906 28.117188 66.382812 28.367188 66.648438 C 28.617188 66.910156 28.785156 67.042969 28.738281 66.949219 C 28.691406 66.851562 28.792969 66.929688 28.964844 67.125 C 29.136719 67.316406 29.238281 67.40625 29.191406 67.320312 C 29.125 67.191406 29.152344 67.191406 29.347656 67.3125 C 29.476562 67.394531 29.558594 67.507812 29.527344 67.558594 C 29.492188 67.613281 29.507812 67.648438 29.5625 67.636719 C 29.8125 67.59375 29.957031 67.664062 29.878906 67.785156 C 29.828125 67.867188 29.847656 67.886719 29.925781 67.839844 C 30 67.792969 30.164062 67.867188 30.296875 67.996094 C 30.425781 68.128906 30.546875 68.226562 30.5625 68.21875 C 30.664062 68.15625 31.105469 68.390625 31.050781 68.476562 C 31.015625 68.535156 31.066406 68.550781 31.167969 68.515625 C 31.273438 68.472656 31.375 68.523438 31.417969 68.632812 C 31.457031 68.734375 31.53125 68.792969 31.585938 68.757812 C 31.738281 68.664062 32.28125 68.957031 32.199219 69.089844 C 32.15625 69.164062 32.203125 69.179688 32.320312 69.136719 C 32.425781 69.09375 32.511719 69.117188 32.511719 69.183594 C 32.511719 69.25 32.566406 69.269531 32.628906 69.230469 C 32.695312 69.191406 32.746094 69.210938 32.746094 69.277344 C 32.746094 69.34375 32.832031 69.363281 32.941406 69.324219 C 33.078125 69.269531 33.109375 69.292969 33.042969 69.398438 C 32.972656 69.511719 33.015625 69.527344 33.214844 69.464844 C 33.378906 69.410156 33.449219 69.421875 33.402344 69.5 C 33.359375 69.570312 33.425781 69.59375 33.582031 69.550781 C 33.765625 69.503906 33.808594 69.527344 33.742188 69.632812 C 33.671875 69.742188 33.71875 69.761719 33.910156 69.699219 C 34.070312 69.648438 34.148438 69.660156 34.105469 69.726562 C 34.0625 69.792969 34.160156 69.816406 34.339844 69.78125 C 34.535156 69.742188 34.617188 69.765625 34.570312 69.847656 C 34.523438 69.921875 34.585938 69.945312 34.746094 69.902344 C 34.898438 69.863281 34.96875 69.882812 34.925781 69.957031 C 34.878906 70.027344 34.96875 70.050781 35.15625 70.015625 C 35.335938 69.980469 35.433594 70.003906 35.390625 70.070312 C 35.351562 70.136719 35.46875 70.160156 35.683594 70.128906 C 35.9375 70.089844 36.019531 70.117188 35.957031 70.214844 C 35.898438 70.3125 35.960938 70.328125 36.175781 70.273438 C 36.355469 70.230469 36.476562 70.25 36.476562 70.320312 C 36.476562 70.398438 36.640625 70.417969 36.902344 70.375 C 37.179688 70.328125 37.300781 70.347656 37.253906 70.425781 C 37.203125 70.507812 37.519531 70.527344 38.210938 70.488281 C 38.910156 70.445312 39.265625 70.46875 39.320312 70.558594 C 39.367188 70.632812 39.464844 70.691406 39.542969 70.691406 C 39.628906 70.691406 39.613281 70.640625 39.503906 70.566406 C 39.378906 70.472656 39.613281 70.457031 40.355469 70.503906 C 41.085938 70.546875 41.355469 70.527344 41.296875 70.433594 C 41.242188 70.34375 41.363281 70.328125 41.710938 70.386719 C 42.0625 70.441406 42.179688 70.425781 42.121094 70.332031 C 42.066406 70.238281 42.144531 70.222656 42.394531 70.277344 C 42.605469 70.324219 42.777344 70.304688 42.824219 70.226562 C 42.871094 70.15625 43.011719 70.132812 43.144531 70.175781 C 43.316406 70.230469 43.355469 70.210938 43.289062 70.101562 C 43.222656 69.992188 43.28125 69.976562 43.519531 70.035156 C 43.75 70.09375 43.8125 70.078125 43.75 69.976562 C 43.691406 69.878906 43.738281 69.855469 43.917969 69.902344 C 44.070312 69.945312 44.140625 69.921875 44.09375 69.851562 C 44.046875 69.773438 44.117188 69.761719 44.285156 69.816406 C 44.480469 69.878906 44.523438 69.859375 44.457031 69.75 C 44.390625 69.644531 44.433594 69.621094 44.617188 69.667969 C 44.777344 69.710938 44.839844 69.691406 44.789062 69.609375 C 44.742188 69.53125 44.796875 69.507812 44.9375 69.542969 C 45.0625 69.578125 45.234375 69.53125 45.320312 69.4375 C 45.402344 69.347656 45.546875 69.300781 45.636719 69.335938 C 45.726562 69.371094 45.800781 69.34375 45.800781 69.277344 C 45.800781 69.210938 45.851562 69.191406 45.914062 69.230469 C 45.980469 69.269531 46.03125 69.253906 46.03125 69.195312 C 46.03125 69.042969 46.609375 68.804688 46.757812 68.894531 C 46.828125 68.9375 46.851562 68.917969 46.808594 68.851562 C 46.726562 68.71875 47.042969 68.546875 47.195312 68.644531 C 47.246094 68.675781 47.320312 68.621094 47.359375 68.519531 C 47.398438 68.417969 47.480469 68.371094 47.546875 68.410156 C 47.609375 68.449219 47.664062 68.417969 47.664062 68.339844 C 47.664062 68.261719 47.699219 68.230469 47.738281 68.273438 C 47.78125 68.316406 47.894531 68.242188 47.984375 68.109375 C 48.078125 67.972656 48.226562 67.898438 48.324219 67.933594 C 48.414062 67.96875 48.464844 67.957031 48.433594 67.90625 C 48.402344 67.855469 48.484375 67.746094 48.617188 67.664062 C 48.8125 67.542969 48.839844 67.542969 48.769531 67.671875 C 48.722656 67.753906 48.8125 67.679688 48.960938 67.496094 C 49.113281 67.316406 49.339844 67.152344 49.46875 67.136719 C 49.597656 67.117188 49.703125 67.039062 49.703125 66.960938 C 49.703125 66.800781 50 66.585938 50.121094 66.660156 C 50.164062 66.6875 50.386719 66.488281 50.617188 66.214844 C 51.164062 65.558594 52.175781 64.484375 51.964844 64.78125 C 51.8125 64.996094 51.816406 65.003906 52.003906 64.855469 C 52.113281 64.769531 52.183594 64.660156 52.15625 64.617188 C 52.128906 64.570312 52.238281 64.378906 52.398438 64.191406 C 52.558594 64 52.652344 63.925781 52.605469 64.023438 C 52.554688 64.125 52.5625 64.15625 52.625 64.101562 C 52.683594 64.046875 52.734375 63.957031 52.734375 63.898438 C 52.734375 63.84375 52.835938 63.710938 52.964844 63.609375 C 53.09375 63.503906 53.121094 63.453125 53.023438 63.496094 C 52.929688 63.535156 52.964844 63.46875 53.105469 63.34375 C 53.246094 63.21875 53.332031 63.082031 53.292969 63.042969 C 53.253906 63.003906 53.308594 62.941406 53.414062 62.898438 C 53.519531 62.859375 53.578125 62.78125 53.542969 62.726562 C 53.507812 62.671875 53.589844 62.519531 53.71875 62.386719 C 53.847656 62.257812 53.929688 62.148438 53.894531 62.148438 C 53.863281 62.148438 53.914062 61.992188 54.015625 61.796875 C 54.113281 61.605469 54.25 61.445312 54.316406 61.445312 C 54.382812 61.445312 54.402344 61.394531 54.363281 61.328125 C 54.324219 61.265625 54.351562 61.210938 54.421875 61.210938 C 54.496094 61.210938 54.523438 61.164062 54.488281 61.105469 C 54.386719 60.941406 54.546875 60.617188 54.6875 60.707031 C 54.765625 60.753906 54.785156 60.710938 54.738281 60.585938 C 54.695312 60.480469 54.710938 60.394531 54.773438 60.394531 C 54.832031 60.394531 54.847656 60.304688 54.808594 60.199219 C 54.757812 60.074219 54.777344 60.03125 54.859375 60.082031 C 54.9375 60.132812 54.960938 60.070312 54.917969 59.90625 C 54.871094 59.734375 54.894531 59.679688 54.984375 59.738281 C 55.074219 59.792969 55.09375 59.753906 55.042969 59.621094 C 54.992188 59.492188 55.011719 59.445312 55.089844 59.496094 C 55.171875 59.546875 55.191406 59.484375 55.152344 59.320312 C 55.101562 59.136719 55.125 59.09375 55.230469 59.160156 C 55.339844 59.226562 55.359375 59.1875 55.300781 59.003906 C 55.257812 58.867188 55.273438 58.753906 55.335938 58.753906 C 55.398438 58.753906 55.417969 58.640625 55.382812 58.503906 C 55.335938 58.324219 55.359375 58.277344 55.457031 58.335938 C 55.558594 58.398438 55.574219 58.335938 55.515625 58.101562 C 55.457031 57.863281 55.472656 57.804688 55.582031 57.875 C 55.695312 57.941406 55.710938 57.875 55.644531 57.585938 C 55.585938 57.316406 55.601562 57.226562 55.695312 57.285156 C 55.785156 57.34375 55.808594 57.203125 55.769531 56.804688 C 55.738281 56.496094 55.765625 56.214844 55.828125 56.175781 C 55.890625 56.136719 55.785156 55.933594 55.597656 55.722656 C 55.410156 55.507812 55.199219 55.371094 55.128906 55.414062 C 55.0625 55.457031 55.003906 55.4375 55.003906 55.371094 C 55.003906 55.296875 54.851562 55.277344 54.625 55.316406 C 54.324219 55.367188 54.28125 55.351562 54.421875 55.242188 C 54.566406 55.128906 54.546875 55.117188 54.308594 55.171875 C 53.984375 55.242188 53.464844 55.144531 53.542969 55.019531 C 53.570312 54.976562 53.492188 54.933594 53.367188 54.925781 C 53.246094 54.914062 53.15625 54.96875 53.171875 55.046875 C 53.1875 55.121094 53.128906 55.171875 53.042969 55.152344 C 52.9375 55.128906 52.914062 55.195312 52.964844 55.359375 C 53.011719 55.5 52.988281 55.59375 52.90625 55.59375 C 52.820312 55.59375 52.796875 55.714844 52.847656 55.945312 C 52.898438 56.175781 52.878906 56.296875 52.792969 56.296875 C 52.710938 56.296875 52.6875 56.390625 52.734375 56.53125 C 52.777344 56.667969 52.753906 56.765625 52.679688 56.765625 C 52.601562 56.765625 52.582031 56.882812 52.632812 57.074219 C 52.6875 57.300781 52.667969 57.363281 52.570312 57.300781 C 52.46875 57.238281 52.453125 57.300781 52.511719 57.535156 C 52.566406 57.757812 52.550781 57.828125 52.460938 57.769531 C 52.375 57.71875 52.351562 57.753906 52.398438 57.871094 C 52.433594 57.972656 52.414062 58.050781 52.347656 58.050781 C 52.285156 58.050781 52.261719 58.164062 52.296875 58.304688 C 52.339844 58.476562 52.320312 58.53125 52.226562 58.472656 C 52.140625 58.421875 52.117188 58.457031 52.164062 58.574219 C 52.203125 58.671875 52.171875 58.753906 52.097656 58.753906 C 52.023438 58.753906 51.992188 58.808594 52.035156 58.871094 C 52.074219 58.9375 52.050781 58.988281 51.984375 58.988281 C 51.917969 58.988281 51.894531 59.066406 51.933594 59.164062 C 51.972656 59.261719 51.917969 59.367188 51.8125 59.410156 C 51.710938 59.449219 51.652344 59.523438 51.683594 59.574219 C 51.78125 59.730469 51.613281 60.046875 51.480469 59.964844 C 51.40625 59.921875 51.390625 59.945312 51.441406 60.023438 C 51.539062 60.183594 51.234375 60.664062 51.113281 60.542969 C 51.066406 60.496094 51.0625 60.542969 51.101562 60.648438 C 51.152344 60.773438 51.023438 60.988281 50.730469 61.285156 C 50.488281 61.527344 50.363281 61.683594 50.453125 61.628906 C 50.59375 61.539062 50.59375 61.558594 50.449219 61.757812 C 50.117188 62.230469 49.65625 62.734375 49.558594 62.734375 C 49.503906 62.734375 49.25 62.957031 49 63.230469 L 48.539062 63.730469 L 49.011719 63.320312 C 49.273438 63.09375 49.171875 63.210938 48.785156 63.578125 C 48.402344 63.945312 48.050781 64.21875 48 64.191406 C 47.953125 64.160156 47.875 64.195312 47.828125 64.273438 C 47.777344 64.355469 47.792969 64.378906 47.878906 64.324219 C 47.953125 64.28125 48.011719 64.261719 48.011719 64.289062 C 48.011719 64.363281 47.015625 65.058594 46.851562 65.097656 C 46.769531 65.117188 46.566406 65.253906 46.402344 65.402344 C 46.238281 65.546875 46.035156 65.640625 45.945312 65.605469 C 45.847656 65.570312 45.816406 65.597656 45.871094 65.679688 C 45.925781 65.773438 45.886719 65.792969 45.753906 65.738281 C 45.617188 65.6875 45.582031 65.707031 45.636719 65.796875 C 45.691406 65.890625 45.65625 65.910156 45.519531 65.855469 C 45.402344 65.8125 45.351562 65.828125 45.390625 65.894531 C 45.453125 65.996094 45.214844 66.066406 44.953125 66.023438 C 44.90625 66.015625 44.867188 66.066406 44.867188 66.136719 C 44.867188 66.203125 44.8125 66.226562 44.75 66.1875 C 44.6875 66.148438 44.632812 66.175781 44.632812 66.25 C 44.632812 66.328125 44.550781 66.355469 44.453125 66.316406 C 44.335938 66.273438 44.300781 66.292969 44.355469 66.382812 C 44.410156 66.472656 44.375 66.496094 44.246094 66.445312 C 44.136719 66.402344 44.050781 66.425781 44.050781 66.496094 C 44.050781 66.566406 43.972656 66.589844 43.875 66.554688 C 43.78125 66.515625 43.699219 66.542969 43.699219 66.613281 C 43.699219 66.683594 43.621094 66.707031 43.519531 66.667969 C 43.402344 66.625 43.367188 66.644531 43.421875 66.730469 C 43.480469 66.824219 43.40625 66.839844 43.183594 66.785156 C 42.953125 66.726562 42.890625 66.742188 42.953125 66.84375 C 43.011719 66.941406 42.964844 66.964844 42.789062 66.917969 C 42.648438 66.882812 42.535156 66.90625 42.535156 66.972656 C 42.535156 67.039062 42.402344 67.058594 42.214844 67.015625 C 41.964844 66.957031 41.933594 66.96875 42.070312 67.070312 C 42.203125 67.167969 42.121094 67.183594 41.71875 67.128906 C 41.324219 67.078125 41.238281 67.09375 41.371094 67.191406 C 41.5 67.285156 41.375 67.300781 40.875 67.25 C 40.457031 67.207031 40.207031 67.222656 40.207031 67.296875 C 40.207031 67.367188 39.820312 67.414062 39.273438 67.414062 C 38.675781 67.414062 38.339844 67.371094 38.339844 67.289062 C 38.339844 67.207031 38.167969 67.179688 37.875 67.214844 C 37.617188 67.242188 37.410156 67.21875 37.410156 67.160156 C 37.410156 67.101562 37.226562 67.089844 37 67.128906 C 36.722656 67.183594 36.59375 67.164062 36.59375 67.070312 C 36.59375 66.984375 36.503906 66.960938 36.359375 67.007812 C 36.21875 67.050781 36.125 67.027344 36.125 66.949219 C 36.125 66.867188 36.03125 66.84375 35.894531 66.890625 C 35.765625 66.929688 35.660156 66.910156 35.660156 66.847656 C 35.660156 66.785156 35.546875 66.765625 35.410156 66.800781 C 35.226562 66.847656 35.183594 66.828125 35.25 66.71875 C 35.316406 66.609375 35.273438 66.59375 35.078125 66.65625 C 34.886719 66.714844 34.839844 66.699219 34.902344 66.597656 C 34.964844 66.492188 34.917969 66.476562 34.726562 66.539062 C 34.550781 66.59375 34.492188 66.582031 34.546875 66.492188 C 34.621094 66.367188 34.398438 66.308594 34.046875 66.355469 C 33.960938 66.367188 33.921875 66.320312 33.964844 66.253906 C 34.03125 66.144531 33.804688 66.070312 33.535156 66.113281 C 33.484375 66.121094 33.445312 66.074219 33.445312 66.011719 C 33.445312 65.945312 33.40625 65.90625 33.359375 65.921875 C 33.195312 65.972656 32.515625 65.632812 32.578125 65.53125 C 32.613281 65.472656 32.566406 65.457031 32.476562 65.492188 C 32.382812 65.527344 32.140625 65.386719 31.921875 65.167969 C 31.710938 64.957031 31.578125 64.859375 31.625 64.957031 C 31.675781 65.054688 31.605469 65 31.464844 64.839844 C 31.324219 64.679688 31.25 64.621094 31.300781 64.714844 C 31.355469 64.820312 31.277344 64.796875 31.089844 64.65625 C 30.925781 64.53125 30.8125 64.390625 30.84375 64.339844 C 30.875 64.289062 30.855469 64.265625 30.800781 64.28125 C 30.667969 64.324219 30.066406 63.84375 30.066406 63.691406 C 30.066406 63.625 29.683594 63.222656 29.21875 62.796875 C 28.394531 62.050781 27.875 61.433594 28.222656 61.621094 C 28.308594 61.667969 28.234375 61.582031 28.0625 61.429688 C 27.886719 61.277344 27.730469 61.078125 27.710938 60.988281 C 27.691406 60.898438 27.582031 60.722656 27.46875 60.605469 C 27.355469 60.484375 27.292969 60.332031 27.332031 60.273438 C 27.367188 60.210938 27.339844 60.160156 27.269531 60.160156 C 27.199219 60.160156 27.171875 60.105469 27.210938 60.042969 C 27.25 59.976562 27.222656 59.925781 27.152344 59.925781 C 27.082031 59.925781 27.054688 59.871094 27.09375 59.808594 C 27.132812 59.742188 27.109375 59.691406 27.035156 59.691406 C 26.964844 59.691406 26.9375 59.636719 26.976562 59.574219 C 27.019531 59.507812 26.984375 59.457031 26.90625 59.457031 C 26.828125 59.457031 26.796875 59.425781 26.835938 59.382812 C 26.875 59.34375 26.828125 59.230469 26.734375 59.136719 C 26.636719 59.039062 26.585938 58.882812 26.621094 58.792969 C 26.660156 58.6875 26.632812 58.65625 26.550781 58.710938 C 26.457031 58.765625 26.4375 58.726562 26.492188 58.59375 C 26.542969 58.457031 26.523438 58.417969 26.433594 58.472656 C 26.34375 58.53125 26.320312 58.476562 26.367188 58.304688 C 26.40625 58.148438 26.386719 58.082031 26.3125 58.125 C 26.238281 58.171875 26.226562 58.101562 26.277344 57.933594 C 26.339844 57.746094 26.324219 57.695312 26.222656 57.761719 C 26.117188 57.824219 26.101562 57.777344 26.164062 57.585938 C 26.222656 57.394531 26.207031 57.34375 26.105469 57.410156 C 26 57.472656 25.984375 57.425781 26.046875 57.234375 C 26.109375 57.039062 26.089844 56.992188 25.984375 57.058594 C 25.875 57.128906 25.855469 57.074219 25.914062 56.839844 C 25.964844 56.644531 25.945312 56.53125 25.859375 56.53125 C 25.777344 56.53125 25.757812 56.421875 25.800781 56.238281 C 25.847656 56.058594 25.824219 55.945312 25.746094 55.945312 C 25.664062 55.945312 25.648438 55.816406 25.699219 55.578125 C 25.742188 55.378906 25.734375 55.242188 25.679688 55.277344 C 25.625 55.308594 25.578125 54.480469 25.578125 53.429688 C 25.578125 52.378906 25.621094 51.582031 25.671875 51.65625 C 25.722656 51.730469 25.730469 51.59375 25.6875 51.351562 C 25.632812 51.042969 25.652344 50.914062 25.753906 50.914062 C 25.847656 50.914062 25.871094 50.8125 25.820312 50.609375 C 25.769531 50.40625 25.785156 50.332031 25.871094 50.386719 C 25.957031 50.4375 25.972656 50.359375 25.917969 50.144531 C 25.859375 49.914062 25.875 49.847656 25.976562 49.910156 C 26.074219 49.972656 26.089844 49.910156 26.035156 49.675781 C 25.976562 49.453125 25.992188 49.382812 26.085938 49.4375 C 26.171875 49.492188 26.191406 49.457031 26.148438 49.339844 C 26.109375 49.238281 26.136719 49.15625 26.203125 49.15625 C 26.273438 49.15625 26.300781 49.078125 26.261719 48.980469 C 26.226562 48.886719 26.253906 48.804688 26.320312 48.804688 C 26.390625 48.804688 26.414062 48.71875 26.371094 48.609375 C 26.324219 48.480469 26.34375 48.445312 26.433594 48.5 C 26.519531 48.554688 26.542969 48.519531 26.5 48.402344 C 26.460938 48.304688 26.484375 48.222656 26.554688 48.222656 C 26.625 48.222656 26.644531 48.132812 26.605469 48.027344 C 26.550781 47.886719 26.574219 47.859375 26.683594 47.925781 C 26.78125 47.988281 26.8125 47.976562 26.761719 47.898438 C 26.660156 47.734375 26.796875 47.382812 26.929688 47.46875 C 26.988281 47.503906 27 47.441406 26.957031 47.328125 C 26.90625 47.195312 26.925781 47.15625 27.015625 47.214844 C 27.105469 47.269531 27.125 47.230469 27.074219 47.097656 C 27.023438 46.960938 27.042969 46.921875 27.132812 46.980469 C 27.21875 47.03125 27.242188 47 27.203125 46.898438 C 27.167969 46.804688 27.308594 46.558594 27.523438 46.339844 C 27.738281 46.125 27.832031 45.992188 27.734375 46.042969 C 27.632812 46.09375 27.644531 46.0625 27.761719 45.964844 C 27.875 45.875 27.933594 45.769531 27.898438 45.730469 C 27.859375 45.691406 28.082031 45.40625 28.394531 45.097656 C 28.703125 44.789062 28.855469 44.609375 28.726562 44.703125 C 28.597656 44.796875 28.804688 44.546875 29.183594 44.152344 C 29.5625 43.757812 29.910156 43.457031 29.957031 43.484375 C 30.003906 43.511719 30.113281 43.445312 30.199219 43.332031 C 30.34375 43.148438 30.339844 43.144531 30.152344 43.289062 C 30.042969 43.378906 29.949219 43.425781 29.949219 43.390625 C 29.949219 43.359375 30.140625 43.1875 30.378906 43.003906 C 30.613281 42.824219 30.761719 42.753906 30.707031 42.84375 C 30.652344 42.9375 30.773438 42.835938 30.972656 42.625 C 31.175781 42.410156 31.390625 42.265625 31.453125 42.304688 C 31.515625 42.339844 31.601562 42.3125 31.648438 42.234375 C 31.703125 42.148438 31.683594 42.128906 31.597656 42.183594 C 31.527344 42.226562 31.464844 42.238281 31.464844 42.203125 C 31.464844 42.09375 32.132812 41.789062 32.207031 41.867188 C 32.246094 41.90625 32.28125 41.871094 32.28125 41.785156 C 32.28125 41.699219 32.316406 41.660156 32.355469 41.703125 C 32.398438 41.746094 32.507812 41.6875 32.597656 41.578125 C 32.695312 41.457031 32.726562 41.445312 32.675781 41.550781 C 32.578125 41.734375 32.804688 41.59375 33.199219 41.222656 C 33.285156 41.136719 33.433594 41.097656 33.523438 41.132812 C 33.617188 41.167969 33.664062 41.148438 33.628906 41.09375 C 33.550781 40.96875 33.890625 40.820312 34.039062 40.914062 C 34.097656 40.949219 34.144531 40.917969 34.144531 40.84375 C 34.144531 40.765625 34.226562 40.738281 34.324219 40.773438 C 34.441406 40.820312 34.476562 40.796875 34.429688 40.714844 C 34.375 40.628906 34.433594 40.617188 34.613281 40.671875 C 34.777344 40.722656 34.847656 40.710938 34.800781 40.636719 C 34.703125 40.480469 35.054688 40.355469 35.339844 40.449219 C 35.507812 40.5 35.546875 40.480469 35.484375 40.375 C 35.414062 40.265625 35.472656 40.25 35.710938 40.308594 C 35.941406 40.367188 36.003906 40.351562 35.941406 40.25 C 35.878906 40.144531 35.957031 40.128906 36.230469 40.183594 C 36.488281 40.234375 36.578125 40.21875 36.527344 40.128906 C 36.472656 40.042969 36.5625 40.027344 36.824219 40.085938 C 37.113281 40.152344 37.183594 40.136719 37.113281 40.023438 C 37.042969 39.910156 37.132812 39.894531 37.5 39.953125 C 37.761719 39.996094 38.007812 39.980469 38.042969 39.921875 C 38.078125 39.863281 38.742188 39.808594 39.511719 39.808594 C 40.328125 39.804688 40.886719 39.84375 40.847656 39.90625 C 40.8125 39.96875 40.957031 39.984375 41.191406 39.949219 C 41.480469 39.902344 41.605469 39.925781 41.605469 40.027344 C 41.605469 40.128906 41.714844 40.152344 41.953125 40.105469 C 42.152344 40.0625 42.300781 40.082031 42.300781 40.148438 C 42.300781 40.214844 42.429688 40.234375 42.59375 40.191406 C 42.769531 40.148438 42.886719 40.167969 42.886719 40.246094 C 42.886719 40.316406 42.964844 40.339844 43.058594 40.304688 C 43.15625 40.265625 43.234375 40.300781 43.234375 40.378906 C 43.234375 40.457031 43.3125 40.492188 43.410156 40.453125 C 43.507812 40.417969 43.585938 40.441406 43.585938 40.507812 C 43.585938 40.574219 43.6875 40.597656 43.816406 40.554688 C 43.945312 40.515625 44.050781 40.527344 44.050781 40.582031 C 44.050781 40.636719 44.167969 40.6875 44.3125 40.699219 C 44.453125 40.710938 44.589844 40.773438 44.609375 40.835938 C 44.632812 40.898438 44.722656 40.921875 44.816406 40.886719 C 44.90625 40.851562 44.984375 40.882812 44.984375 40.957031 C 44.984375 41.035156 45.035156 41.0625 45.097656 41.023438 C 45.164062 40.984375 45.214844 41.007812 45.214844 41.082031 C 45.214844 41.152344 45.269531 41.179688 45.332031 41.140625 C 45.398438 41.101562 45.449219 41.125 45.449219 41.199219 C 45.449219 41.269531 45.5 41.296875 45.566406 41.257812 C 45.628906 41.21875 45.683594 41.242188 45.683594 41.316406 C 45.683594 41.386719 45.730469 41.414062 45.792969 41.378906 C 45.941406 41.285156 46.636719 41.722656 46.527344 41.84375 C 46.480469 41.894531 46.511719 41.894531 46.601562 41.84375 C 46.707031 41.78125 46.839844 41.84375 46.988281 42.03125 C 47.113281 42.183594 47.183594 42.230469 47.140625 42.136719 C 47.097656 42.039062 47.171875 42.082031 47.304688 42.234375 C 47.4375 42.386719 47.546875 42.464844 47.550781 42.410156 C 47.550781 42.355469 47.660156 42.441406 47.792969 42.601562 C 47.925781 42.765625 48 42.816406 47.957031 42.71875 C 47.914062 42.625 48.046875 42.730469 48.253906 42.953125 C 48.457031 43.179688 48.585938 43.285156 48.535156 43.1875 C 48.484375 43.089844 48.675781 43.222656 48.957031 43.480469 C 49.234375 43.738281 49.488281 43.960938 49.511719 43.972656 C 49.660156 44.054688 49.609375 44.605469 49.460938 44.546875 C 49.371094 44.511719 49.292969 44.535156 49.292969 44.601562 C 49.292969 44.667969 49.242188 44.691406 49.179688 44.652344 C 49.113281 44.609375 49.0625 44.636719 49.0625 44.710938 C 49.0625 44.78125 49.007812 44.808594 48.945312 44.769531 C 48.882812 44.730469 48.828125 44.753906 48.828125 44.828125 C 48.828125 44.898438 48.78125 44.929688 48.726562 44.894531 C 48.667969 44.859375 48.59375 44.9375 48.558594 45.074219 C 48.519531 45.230469 48.441406 45.285156 48.351562 45.230469 C 48.246094 45.164062 48.230469 45.214844 48.292969 45.421875 C 48.335938 45.578125 48.386719 45.769531 48.402344 45.847656 C 48.421875 45.925781 48.480469 46.03125 48.53125 46.082031 C 48.589844 46.132812 48.59375 46.09375 48.546875 45.996094 C 48.496094 45.886719 48.523438 45.898438 48.628906 46.023438 C 48.71875 46.136719 48.828125 46.191406 48.871094 46.152344 C 48.910156 46.109375 48.945312 46.140625 48.945312 46.21875 C 48.945312 46.296875 48.996094 46.328125 49.0625 46.289062 C 49.125 46.25 49.179688 46.277344 49.179688 46.347656 C 49.179688 46.421875 49.230469 46.445312 49.292969 46.40625 C 49.359375 46.367188 49.410156 46.394531 49.410156 46.464844 C 49.410156 46.539062 49.460938 46.566406 49.519531 46.53125 C 49.667969 46.4375 50.007812 46.585938 49.929688 46.710938 C 49.894531 46.765625 49.957031 46.78125 50.066406 46.738281 C 50.199219 46.683594 50.238281 46.703125 50.183594 46.796875 C 50.128906 46.882812 50.160156 46.90625 50.269531 46.863281 C 50.363281 46.828125 50.546875 46.902344 50.675781 47.03125 C 50.800781 47.160156 50.9375 47.234375 50.976562 47.195312 C 51.011719 47.160156 51.042969 47.191406 51.042969 47.273438 C 51.042969 47.351562 51.089844 47.386719 51.152344 47.347656 C 51.296875 47.257812 51.867188 47.527344 51.789062 47.652344 C 51.734375 47.742188 51.902344 47.800781 52.121094 47.765625 C 52.167969 47.757812 52.207031 47.8125 52.207031 47.882812 C 52.207031 47.953125 52.289062 47.980469 52.390625 47.941406 C 52.503906 47.898438 52.539062 47.921875 52.488281 48.003906 C 52.441406 48.082031 52.472656 48.113281 52.570312 48.082031 C 52.660156 48.050781 52.800781 48.097656 52.886719 48.183594 C 52.972656 48.269531 53.089844 48.308594 53.148438 48.273438 C 53.210938 48.238281 53.257812 48.265625 53.257812 48.339844 C 53.257812 48.410156 53.308594 48.4375 53.375 48.394531 C 53.4375 48.355469 53.488281 48.378906 53.488281 48.445312 C 53.488281 48.511719 53.578125 48.53125 53.683594 48.488281 C 53.789062 48.449219 53.847656 48.464844 53.8125 48.523438 C 53.730469 48.65625 54.507812 48.644531 54.628906 48.511719 C 54.675781 48.460938 54.636719 48.457031 54.539062 48.503906 C 54.382812 48.578125 54.382812 48.570312 54.539062 48.433594 C 54.640625 48.34375 54.699219 48.136719 54.675781 47.945312 C 54.648438 47.707031 54.679688 47.636719 54.78125 47.699219 C 54.886719 47.765625 54.902344 47.679688 54.839844 47.359375 C 54.792969 47.09375 54.808594 46.933594 54.882812 46.933594 C 54.957031 46.933594 54.976562 46.722656 54.933594 46.378906 C 54.886719 45.953125 54.898438 45.863281 55 45.996094 C 55.097656 46.132812 55.113281 46.054688 55.058594 45.664062 C 55.007812 45.28125 55.027344 45.175781 55.132812 45.242188 C 55.238281 45.308594 55.253906 45.210938 55.195312 44.835938 C 55.136719 44.480469 55.152344 44.363281 55.25 44.421875 C 55.34375 44.480469 55.355469 44.367188 55.296875 44.007812 C 55.246094 43.707031 55.257812 43.535156 55.320312 43.578125 C 55.382812 43.617188 55.421875 43.425781 55.410156 43.128906 C 55.398438 42.84375 55.433594 42.636719 55.488281 42.671875 C 55.664062 42.78125 55.539062 41.96875 55.355469 41.804688 C 55.199219 41.667969 55.199219 41.660156 55.355469 41.734375 C 55.449219 41.78125 55.492188 41.777344 55.441406 41.726562 C 55.324219 41.59375 54.664062 41.582031 54.742188 41.714844 C 54.78125 41.773438 54.722656 41.789062 54.609375 41.746094 C 54.476562 41.695312 54.4375 41.714844 54.492188 41.804688 C 54.550781 41.894531 54.511719 41.914062 54.378906 41.863281 C 54.265625 41.820312 54.207031 41.832031 54.242188 41.890625 C 54.3125 42.007812 53.980469 42.164062 53.839844 42.078125 C 53.789062 42.046875 53.714844 42.101562 53.675781 42.207031 C 53.636719 42.308594 53.53125 42.363281 53.441406 42.328125 C 53.351562 42.296875 53.25 42.339844 53.214844 42.425781 C 53.101562 42.722656 52.714844 42.472656 51.585938 41.375 C 50.964844 40.777344 50.492188 40.339844 50.53125 40.402344 C 50.574219 40.46875 50.46875 40.429688 50.300781 40.320312 C 49.996094 40.117188 49.863281 39.9375 50.140625 40.097656 C 50.222656 40.148438 50.246094 40.136719 50.191406 40.078125 C 50.136719 40.019531 50.007812 39.972656 49.898438 39.972656 C 49.792969 39.96875 49.714844 39.902344 49.730469 39.824219 C 49.75 39.742188 49.722656 39.683594 49.675781 39.691406 C 49.4375 39.726562 49.289062 39.664062 49.355469 39.558594 C 49.394531 39.492188 49.386719 39.445312 49.332031 39.453125 C 49.078125 39.5 48.9375 39.429688 49.015625 39.296875 C 49.0625 39.214844 49.058594 39.1875 49.007812 39.234375 C 48.890625 39.339844 48.246094 39.011719 48.246094 38.847656 C 48.246094 38.78125 48.195312 38.757812 48.132812 38.796875 C 48.070312 38.835938 47.925781 38.773438 47.8125 38.65625 C 47.699219 38.542969 47.539062 38.441406 47.460938 38.4375 C 47.121094 38.410156 47.070312 38.382812 47.136719 38.273438 C 47.179688 38.203125 47.128906 38.1875 47.007812 38.234375 C 46.875 38.289062 46.835938 38.269531 46.894531 38.175781 C 46.945312 38.089844 46.914062 38.066406 46.796875 38.109375 C 46.695312 38.148438 46.613281 38.117188 46.613281 38.042969 C 46.613281 37.96875 46.566406 37.9375 46.507812 37.972656 C 46.359375 38.066406 46.019531 37.917969 46.097656 37.792969 C 46.132812 37.738281 46.078125 37.722656 45.980469 37.757812 C 45.878906 37.796875 45.800781 37.773438 45.800781 37.703125 C 45.800781 37.632812 45.71875 37.609375 45.625 37.644531 C 45.527344 37.683594 45.449219 37.652344 45.449219 37.574219 C 45.449219 37.5 45.398438 37.46875 45.339844 37.507812 C 45.28125 37.542969 45.199219 37.523438 45.164062 37.460938 C 45.125 37.398438 45.015625 37.375 44.921875 37.414062 C 44.828125 37.449219 44.75 37.425781 44.75 37.359375 C 44.75 37.292969 44.636719 37.269531 44.5 37.308594 C 44.316406 37.355469 44.273438 37.332031 44.339844 37.226562 C 44.40625 37.117188 44.363281 37.097656 44.183594 37.15625 C 44.046875 37.199219 43.933594 37.1875 43.933594 37.125 C 43.933594 37.066406 43.796875 37.042969 43.625 37.078125 C 43.394531 37.121094 43.339844 37.097656 43.410156 36.984375 C 43.480469 36.871094 43.429688 36.851562 43.195312 36.910156 C 43.019531 36.953125 42.886719 36.941406 42.886719 36.878906 C 42.886719 36.816406 42.691406 36.792969 42.449219 36.828125 C 42.121094 36.871094 42.054688 36.855469 42.1875 36.761719 C 42.3125 36.671875 42.191406 36.65625 41.71875 36.699219 C 41.257812 36.738281 41.144531 36.722656 41.3125 36.640625 C 41.472656 36.5625 41.238281 36.546875 40.554688 36.589844 C 39.835938 36.636719 39.613281 36.617188 39.738281 36.527344 C 39.875 36.433594 39.804688 36.402344 39.425781 36.402344 C 39.15625 36.402344 38.898438 36.460938 38.855469 36.53125 M 27.503906 41.234375 C 27.503906 41.253906 27.332031 41.425781 27.125 41.617188 L 26.746094 41.960938 L 27.085938 41.578125 C 27.40625 41.222656 27.503906 41.144531 27.503906 41.234375 M 25.484375 53.808594 C 25.457031 53.921875 25.433594 53.832031 25.433594 53.605469 C 25.433594 53.378906 25.457031 53.289062 25.484375 53.398438 C 25.515625 53.511719 25.515625 53.695312 25.484375 53.808594 M 29.542969 63.203125 C 29.792969 63.460938 29.972656 63.671875 29.9375 63.671875 C 29.90625 63.671875 29.675781 63.460938 29.425781 63.203125 C 29.175781 62.945312 28.996094 62.734375 29.027344 62.734375 C 29.0625 62.734375 29.292969 62.945312 29.542969 63.203125 "/>
<path style=" stroke:none;fill-rule:evenodd;fill:rgb(58.431375%,61.176473%,61.960787%);fill-opacity:1;" d="M 124.628906 44.828125 C 124.628906 46.339844 124.644531 46.957031 124.664062 46.203125 C 124.683594 45.445312 124.683594 44.207031 124.664062 43.453125 C 124.644531 42.695312 124.628906 43.3125 124.628906 44.828125 M 139.523438 44.679688 C 139.890625 44.703125 140.496094 44.703125 140.863281 44.679688 C 141.230469 44.65625 140.929688 44.636719 140.191406 44.636719 C 139.457031 44.636719 139.15625 44.65625 139.523438 44.679688 M 133.527344 48.894531 C 133.929688 48.914062 134.558594 48.914062 134.925781 48.894531 C 135.289062 48.871094 134.960938 48.851562 134.191406 48.851562 C 133.421875 48.851562 133.125 48.871094 133.527344 48.894531 M 128.65625 51.242188 L 128.710938 51.90625 L 128.75 51.335938 C 128.769531 51.019531 128.746094 50.71875 128.691406 50.667969 C 128.640625 50.617188 128.625 50.875 128.65625 51.242188 M 46.644531 54.832031 C 46.644531 55.089844 46.667969 55.183594 46.695312 55.039062 C 46.726562 54.890625 46.722656 54.679688 46.695312 54.570312 C 46.664062 54.457031 46.640625 54.578125 46.644531 54.832031 M 146.808594 54.976562 C 146.949219 55.003906 147.1875 55.003906 147.332031 54.976562 C 147.476562 54.945312 147.355469 54.925781 147.070312 54.925781 C 146.78125 54.925781 146.664062 54.945312 146.808594 54.976562 M 147.914062 54.976562 C 148.089844 55.003906 148.378906 55.003906 148.554688 54.976562 C 148.730469 54.949219 148.585938 54.925781 148.234375 54.925781 C 147.882812 54.925781 147.738281 54.949219 147.914062 54.976562 M 111.5 55.328125 C 111.773438 55.355469 112.191406 55.355469 112.433594 55.328125 C 112.671875 55.304688 112.445312 55.28125 111.933594 55.285156 C 111.421875 55.285156 111.226562 55.304688 111.5 55.328125 M 99.085938 58.367188 C 99.199219 58.398438 99.378906 58.398438 99.492188 58.367188 C 99.605469 58.339844 99.511719 58.3125 99.289062 58.3125 C 99.066406 58.3125 98.972656 58.339844 99.085938 58.367188 M 88.503906 62.96875 C 88.503906 65.316406 88.519531 66.277344 88.539062 65.105469 C 88.558594 63.929688 88.558594 62.007812 88.539062 60.832031 C 88.519531 59.65625 88.503906 60.617188 88.503906 62.96875 M 65.289062 61.269531 C 65.292969 61.527344 65.316406 61.621094 65.34375 61.472656 C 65.371094 61.328125 65.371094 61.117188 65.339844 61.007812 C 65.3125 60.894531 65.289062 61.011719 65.289062 61.269531 M 112.378906 62.910156 C 112.378906 63.296875 112.398438 63.441406 112.425781 63.230469 C 112.453125 63.019531 112.449219 62.703125 112.425781 62.527344 C 112.398438 62.351562 112.375 62.523438 112.378906 62.910156 M 138.121094 63.203125 C 138.121094 63.425781 138.148438 63.519531 138.175781 63.40625 C 138.207031 63.292969 138.207031 63.109375 138.175781 62.996094 C 138.148438 62.886719 138.121094 62.976562 138.121094 63.203125 M 94.195312 64.371094 C 94.195312 64.726562 94.21875 64.871094 94.246094 64.695312 C 94.273438 64.515625 94.273438 64.226562 94.246094 64.050781 C 94.21875 63.875 94.195312 64.019531 94.195312 64.371094 M 112.378906 64.664062 C 112.378906 65.050781 112.398438 65.195312 112.425781 64.984375 C 112.453125 64.773438 112.449219 64.457031 112.425781 64.28125 C 112.398438 64.105469 112.375 64.277344 112.378906 64.664062 M 94.199219 66.363281 C 94.199219 66.84375 94.222656 67.042969 94.246094 66.800781 C 94.273438 66.558594 94.273438 66.164062 94.246094 65.921875 C 94.222656 65.683594 94.199219 65.878906 94.199219 66.363281 M 125.886719 67.382812 C 126.191406 67.410156 126.691406 67.410156 126.996094 67.382812 C 127.300781 67.359375 127.050781 67.339844 126.441406 67.339844 C 125.832031 67.339844 125.585938 67.359375 125.886719 67.382812 M 95.007812 74.285156 C 95.117188 74.3125 95.300781 74.3125 95.414062 74.285156 C 95.527344 74.253906 95.433594 74.230469 95.210938 74.230469 C 94.984375 74.230469 94.894531 74.253906 95.007812 74.285156 M 100.15625 74.355469 C 100.125 74.4375 100.113281 75.503906 100.132812 76.722656 L 100.167969 78.945312 L 100.195312 76.644531 C 100.214844 74.929688 100.257812 74.324219 100.367188 74.28125 C 100.480469 74.234375 100.480469 74.21875 100.363281 74.214844 C 100.28125 74.207031 100.1875 74.269531 100.15625 74.355469 M 101.007812 74.289062 C 101.214844 74.316406 101.558594 74.316406 101.765625 74.289062 C 101.972656 74.261719 101.804688 74.242188 101.386719 74.242188 C 100.96875 74.242188 100.800781 74.261719 101.007812 74.289062 M 124.027344 74.289062 C 124.203125 74.316406 124.464844 74.3125 124.609375 74.285156 C 124.75 74.257812 124.605469 74.238281 124.285156 74.238281 C 123.964844 74.238281 123.847656 74.261719 124.027344 74.289062 M 146.980469 74.289062 C 147.222656 74.316406 147.617188 74.316406 147.855469 74.289062 C 148.097656 74.265625 147.898438 74.242188 147.417969 74.242188 C 146.9375 74.242188 146.742188 74.265625 146.980469 74.289062 M 123.679688 75.785156 C 123.683594 76.171875 123.703125 76.3125 123.730469 76.105469 C 123.753906 75.894531 123.753906 75.578125 123.726562 75.402344 C 123.703125 75.226562 123.679688 75.398438 123.679688 75.785156 M 143.96875 77.539062 C 143.96875 78.3125 143.984375 78.613281 144.007812 78.207031 C 144.03125 77.804688 144.03125 77.171875 144.007812 76.804688 C 143.984375 76.4375 143.964844 76.765625 143.96875 77.539062 M 77.878906 76.835938 C 77.878906 77.160156 77.902344 77.277344 77.929688 77.097656 C 77.957031 76.921875 77.957031 76.65625 77.929688 76.515625 C 77.902344 76.371094 77.878906 76.515625 77.878906 76.835938 M 87.328125 77.597656 C 87.328125 78.339844 87.347656 78.640625 87.371094 78.269531 C 87.394531 77.902344 87.394531 77.296875 87.371094 76.925781 C 87.347656 76.554688 87.328125 76.859375 87.328125 77.597656 M 147.390625 76.628906 C 147.535156 76.65625 147.746094 76.65625 147.855469 76.625 C 147.96875 76.597656 147.851562 76.574219 147.59375 76.574219 C 147.335938 76.574219 147.246094 76.597656 147.390625 76.628906 M 123.683594 78.242188 C 123.683594 78.691406 123.707031 78.863281 123.730469 78.621094 C 123.753906 78.378906 123.753906 78.007812 123.730469 77.800781 C 123.703125 77.59375 123.683594 77.792969 123.683594 78.242188 M 77.882812 78.359375 C 77.886719 78.808594 77.90625 78.980469 77.929688 78.738281 C 77.957031 78.492188 77.957031 78.125 77.929688 77.917969 C 77.90625 77.710938 77.882812 77.910156 77.882812 78.359375 M 85.828125 78.300781 L 85.480469 78.390625 L 85.792969 78.402344 C 85.964844 78.410156 86.140625 78.363281 86.179688 78.300781 C 86.21875 78.238281 86.234375 78.191406 86.214844 78.199219 C 86.195312 78.203125 86.023438 78.25 85.828125 78.300781 M 101.242188 78.382812 C 101.386719 78.410156 101.621094 78.410156 101.765625 78.382812 C 101.910156 78.355469 101.792969 78.332031 101.503906 78.332031 C 101.214844 78.332031 101.097656 78.355469 101.242188 78.382812 "/>
<path style=" stroke:none;fill-rule:evenodd;fill:rgb(48.627451%,45.490196%,45.490196%);fill-opacity:1;" d="M 98.386719 41.746094 C 98.496094 41.777344 98.683594 41.777344 98.792969 41.746094 C 98.90625 41.71875 98.8125 41.695312 98.589844 41.695312 C 98.367188 41.695312 98.273438 41.71875 98.386719 41.746094 M 111.09375 41.988281 C 111.464844 42.011719 112.039062 42.011719 112.375 41.988281 C 112.707031 41.964844 112.40625 41.945312 111.699219 41.945312 C 110.996094 41.945312 110.722656 41.964844 111.09375 41.988281 M 122.6875 41.988281 C 122.960938 42.011719 123.378906 42.011719 123.621094 41.984375 C 123.859375 41.960938 123.632812 41.941406 123.121094 41.941406 C 122.609375 41.941406 122.414062 41.960938 122.6875 41.988281 M 129.207031 41.984375 C 129.414062 42.011719 129.78125 42.011719 130.023438 41.984375 C 130.265625 41.960938 130.09375 41.941406 129.648438 41.9375 C 129.199219 41.9375 129 41.960938 129.207031 41.984375 M 128.691406 42.777344 C 128.691406 43.164062 128.714844 43.308594 128.742188 43.097656 C 128.765625 42.886719 128.765625 42.570312 128.738281 42.394531 C 128.714844 42.21875 128.691406 42.390625 128.691406 42.777344 M 128.6875 43.949219 C 128.6875 44.207031 128.710938 44.296875 128.738281 44.152344 C 128.765625 44.007812 128.765625 43.796875 128.738281 43.683594 C 128.707031 43.574219 128.683594 43.691406 128.6875 43.949219 M 66.921875 45.179688 C 66.921875 45.46875 66.945312 45.585938 66.972656 45.441406 C 67 45.296875 67 45.058594 66.972656 44.914062 C 66.945312 44.769531 66.921875 44.886719 66.921875 45.179688 M 90.816406 47.636719 C 90.816406 47.988281 90.839844 48.136719 90.867188 47.957031 C 90.890625 47.78125 90.890625 47.492188 90.867188 47.3125 C 90.839844 47.136719 90.816406 47.28125 90.816406 47.636719 M 77.496094 47.246094 C 78.757812 47.332031 80.152344 47.335938 80.101562 47.253906 C 80.070312 47.207031 79.355469 47.175781 78.507812 47.1875 C 77.664062 47.199219 77.207031 47.226562 77.496094 47.246094 M 90.828125 50.035156 C 90.828125 50.9375 90.847656 51.289062 90.867188 50.820312 C 90.890625 50.351562 90.890625 49.613281 90.867188 49.179688 C 90.84375 48.75 90.828125 49.132812 90.828125 50.035156 M 137.367188 50.175781 C 137.511719 50.203125 137.722656 50.203125 137.835938 50.175781 C 137.945312 50.144531 137.828125 50.121094 137.570312 50.125 C 137.316406 50.125 137.222656 50.148438 137.367188 50.175781 M 88.71875 51.820312 C 89.023438 51.84375 89.496094 51.84375 89.765625 51.816406 C 90.035156 51.792969 89.785156 51.773438 89.207031 51.773438 C 88.632812 51.773438 88.410156 51.792969 88.71875 51.820312 M 146.410156 56.355469 C 146.410156 56.933594 146.429688 57.1875 146.457031 56.914062 C 146.480469 56.644531 146.480469 56.167969 146.457031 55.863281 C 146.429688 55.554688 146.410156 55.777344 146.410156 56.355469 M 146.402344 58.519531 C 146.402344 58.808594 146.425781 58.929688 146.453125 58.785156 C 146.480469 58.640625 146.480469 58.402344 146.453125 58.257812 C 146.425781 58.113281 146.402344 58.230469 146.402344 58.519531 M 134.6875 58.371094 C 134.832031 58.398438 135.042969 58.394531 135.15625 58.367188 C 135.265625 58.335938 135.148438 58.316406 134.890625 58.316406 C 134.632812 58.316406 134.542969 58.339844 134.6875 58.371094 M 143.371094 58.367188 C 143.480469 58.398438 143.664062 58.398438 143.777344 58.367188 C 143.890625 58.339844 143.796875 58.3125 143.574219 58.3125 C 143.347656 58.3125 143.257812 58.339844 143.371094 58.367188 M 162.835938 59.164062 C 162.835938 59.484375 162.859375 59.605469 162.886719 59.425781 C 162.910156 59.25 162.910156 58.984375 162.882812 58.839844 C 162.855469 58.695312 162.835938 58.84375 162.835938 59.164062 M 165.871094 59.691406 C 165.871094 60.238281 165.890625 60.460938 165.917969 60.1875 C 165.941406 59.914062 165.941406 59.46875 165.917969 59.195312 C 165.890625 58.921875 165.871094 59.144531 165.871094 59.691406 M 67.96875 61.386719 C 67.972656 61.644531 67.996094 61.738281 68.023438 61.589844 C 68.050781 61.445312 68.050781 61.234375 68.019531 61.125 C 67.992188 61.011719 67.96875 61.128906 67.96875 61.386719 M 123.269531 62.234375 C 123.609375 62.257812 124.132812 62.257812 124.4375 62.234375 C 124.738281 62.210938 124.460938 62.191406 123.820312 62.191406 C 123.179688 62.191406 122.933594 62.210938 123.269531 62.234375 M 117.984375 64.839844 C 117.984375 66.160156 118 66.699219 118.023438 66.039062 C 118.042969 65.378906 118.042969 64.300781 118.023438 63.640625 C 118 62.980469 117.984375 63.519531 117.984375 64.839844 M 89.242188 67.386719 C 89.582031 67.410156 90.105469 67.410156 90.40625 67.382812 C 90.710938 67.359375 90.433594 67.339844 89.792969 67.339844 C 89.152344 67.339844 88.902344 67.363281 89.242188 67.386719 M 94.835938 67.382812 C 95.109375 67.410156 95.527344 67.410156 95.765625 67.382812 C 96.003906 67.359375 95.78125 67.339844 95.269531 67.339844 C 94.757812 67.339844 94.558594 67.359375 94.835938 67.382812 M 100.488281 67.386719 C 100.859375 67.410156 101.4375 67.410156 101.769531 67.382812 C 102.105469 67.363281 101.800781 67.34375 101.09375 67.34375 C 100.390625 67.34375 100.117188 67.363281 100.488281 67.386719 M 104.855469 67.386719 C 105.191406 67.410156 105.742188 67.410156 106.078125 67.386719 C 106.414062 67.363281 106.136719 67.34375 105.464844 67.34375 C 104.792969 67.34375 104.515625 67.363281 104.855469 67.386719 M 110.683594 67.386719 C 111.023438 67.410156 111.546875 67.410156 111.851562 67.382812 C 112.152344 67.359375 111.875 67.339844 111.234375 67.339844 C 110.59375 67.339844 110.347656 67.363281 110.683594 67.386719 M 116.214844 67.382812 C 116.519531 67.410156 117.019531 67.410156 117.324219 67.382812 C 117.628906 67.359375 117.378906 67.339844 116.769531 67.339844 C 116.160156 67.339844 115.910156 67.359375 116.214844 67.382812 M 130.261719 67.386719 C 130.601562 67.410156 131.125 67.410156 131.429688 67.382812 C 131.730469 67.359375 131.453125 67.339844 130.8125 67.339844 C 130.171875 67.339844 129.925781 67.363281 130.261719 67.386719 M 136.378906 67.382812 C 136.679688 67.410156 137.179688 67.410156 137.484375 67.382812 C 137.789062 67.359375 137.539062 67.339844 136.929688 67.339844 C 136.320312 67.339844 136.070312 67.359375 136.378906 67.382812 M 146.984375 67.386719 C 147.355469 67.410156 147.933594 67.410156 148.269531 67.382812 C 148.601562 67.363281 148.296875 67.34375 147.59375 67.34375 C 146.886719 67.34375 146.613281 67.363281 146.984375 67.386719 M 161.023438 67.382812 C 161.234375 67.410156 161.574219 67.410156 161.78125 67.382812 C 161.988281 67.355469 161.820312 67.335938 161.402344 67.335938 C 160.988281 67.335938 160.816406 67.355469 161.023438 67.382812 M 162.363281 67.378906 C 162.476562 67.410156 162.660156 67.410156 162.773438 67.378906 C 162.882812 67.351562 162.792969 67.324219 162.566406 67.324219 C 162.34375 67.324219 162.253906 67.351562 162.363281 67.378906 M 154.496094 67.617188 C 154.640625 67.644531 154.878906 67.644531 155.023438 67.617188 C 155.167969 67.585938 155.050781 67.566406 154.761719 67.566406 C 154.472656 67.566406 154.355469 67.585938 154.496094 67.617188 M 91.132812 74.25 C 91.132812 74.273438 91.3125 74.316406 91.53125 74.34375 C 91.75 74.367188 91.90625 74.347656 91.875 74.296875 C 91.816406 74.203125 91.132812 74.160156 91.132812 74.25 M 123.152344 74.285156 C 123.296875 74.316406 123.507812 74.3125 123.617188 74.285156 C 123.730469 74.253906 123.609375 74.230469 123.355469 74.234375 C 123.097656 74.234375 123.007812 74.257812 123.152344 74.285156 M 88.132812 74.789062 C 88.132812 75.078125 88.15625 75.199219 88.183594 75.050781 C 88.210938 74.90625 88.210938 74.671875 88.183594 74.527344 C 88.15625 74.382812 88.132812 74.5 88.132812 74.789062 M 150.960938 75.902344 C 150.960938 76.800781 150.980469 77.15625 151 76.6875 C 151.023438 76.214844 151.023438 75.480469 151 75.046875 C 150.976562 74.617188 150.960938 75 150.960938 75.902344 M 154.804688 75.902344 C 154.804688 76.800781 154.824219 77.15625 154.847656 76.6875 C 154.867188 76.214844 154.867188 75.480469 154.847656 75.046875 C 154.824219 74.617188 154.804688 75 154.804688 75.902344 M 88.128906 76.3125 C 88.128906 76.535156 88.152344 76.628906 88.183594 76.515625 C 88.210938 76.402344 88.210938 76.21875 88.183594 76.105469 C 88.152344 75.992188 88.128906 76.085938 88.128906 76.3125 M 88.140625 77.65625 C 88.140625 78.171875 88.164062 78.367188 88.1875 78.09375 C 88.210938 77.816406 88.210938 77.394531 88.1875 77.15625 C 88.160156 76.917969 88.140625 77.140625 88.140625 77.65625 M 144.773438 77.480469 C 144.773438 77.835938 144.792969 77.980469 144.820312 77.804688 C 144.847656 77.625 144.847656 77.335938 144.820312 77.160156 C 144.792969 76.984375 144.773438 77.128906 144.773438 77.480469 M 109.339844 77.480469 C 109.339844 77.707031 109.363281 77.796875 109.390625 77.6875 C 109.421875 77.574219 109.421875 77.390625 109.390625 77.277344 C 109.363281 77.164062 109.339844 77.257812 109.339844 77.480469 M 108.535156 78.066406 C 108.535156 78.550781 108.554688 78.746094 108.582031 78.503906 C 108.605469 78.265625 108.605469 77.867188 108.582031 77.628906 C 108.554688 77.386719 108.535156 77.582031 108.535156 78.066406 M 147.449219 77.332031 C 147.625 77.359375 147.914062 77.359375 148.089844 77.332031 C 148.265625 77.304688 148.121094 77.28125 147.769531 77.28125 C 147.414062 77.28125 147.269531 77.304688 147.449219 77.332031 M 109.339844 78.59375 C 109.339844 78.851562 109.367188 78.941406 109.394531 78.796875 C 109.421875 78.652344 109.421875 78.441406 109.390625 78.328125 C 109.363281 78.214844 109.339844 78.335938 109.339844 78.59375 M 144.769531 78.59375 C 144.769531 78.851562 144.792969 78.941406 144.820312 78.796875 C 144.847656 78.652344 144.847656 78.441406 144.816406 78.328125 C 144.789062 78.214844 144.765625 78.335938 144.769531 78.59375 "/>
</g>
</svg>
